<svg xmlns="http://www.w3.org/2000/svg" xmlns:xlink="http://www.w3.org/1999/xlink" width="853.954" height="612" viewBox="0 0 853.954 612">
  <defs>
    <clipPath id="clip-path">
      <rect id="Rectangle_308" data-name="Rectangle 308" width="853.954" height="612" fill="none"/>
    </clipPath>
    <clipPath id="clip-path-2">
      <rect id="Rectangle_307" data-name="Rectangle 307" width="853.952" height="612.002" fill="none"/>
    </clipPath>
    <clipPath id="clip-path-3">
      <rect id="Rectangle_289" data-name="Rectangle 289" width="4.682" height="0.444" fill="none"/>
    </clipPath>
    <clipPath id="clip-path-4">
      <rect id="Rectangle_290" data-name="Rectangle 290" width="15.567" height="28.695" fill="none"/>
    </clipPath>
    <clipPath id="clip-path-5">
      <rect id="Rectangle_291" data-name="Rectangle 291" width="121.14" height="121.14" fill="none"/>
    </clipPath>
    <clipPath id="clip-path-6">
      <rect id="Rectangle_292" data-name="Rectangle 292" width="49.538" height="31.587" fill="none"/>
    </clipPath>
    <clipPath id="clip-path-7">
      <rect id="Rectangle_293" data-name="Rectangle 293" width="116.625" height="93.231" fill="none"/>
    </clipPath>
    <clipPath id="clip-path-8">
      <rect id="Rectangle_294" data-name="Rectangle 294" width="77.314" height="51.843" fill="none"/>
    </clipPath>
    <clipPath id="clip-path-9">
      <rect id="Rectangle_295" data-name="Rectangle 295" width="40.093" height="29.45" fill="none"/>
    </clipPath>
    <clipPath id="clip-path-10">
      <rect id="Rectangle_296" data-name="Rectangle 296" width="18.873" height="104.761" fill="none"/>
    </clipPath>
    <clipPath id="clip-path-11">
      <rect id="Rectangle_297" data-name="Rectangle 297" width="42.782" height="102.961" fill="none"/>
    </clipPath>
    <clipPath id="clip-path-12">
      <rect id="Rectangle_298" data-name="Rectangle 298" width="88.74" height="99.203" fill="none"/>
    </clipPath>
    <clipPath id="clip-path-13">
      <rect id="Rectangle_299" data-name="Rectangle 299" width="59.724" height="82.044" fill="none"/>
    </clipPath>
    <clipPath id="clip-path-14">
      <rect id="Rectangle_300" data-name="Rectangle 300" width="37.243" height="106.556" fill="none"/>
    </clipPath>
    <clipPath id="clip-path-15">
      <rect id="Rectangle_301" data-name="Rectangle 301" width="9.118" height="83.498" fill="none"/>
    </clipPath>
    <clipPath id="clip-path-16">
      <rect id="Rectangle_302" data-name="Rectangle 302" width="48.28" height="14.224" fill="none"/>
    </clipPath>
    <clipPath id="clip-path-17">
      <rect id="Rectangle_303" data-name="Rectangle 303" width="182.877" height="35.085" fill="none"/>
    </clipPath>
    <clipPath id="clip-path-18">
      <rect id="Rectangle_304" data-name="Rectangle 304" width="42.264" height="15.119" fill="none"/>
    </clipPath>
    <clipPath id="clip-path-19">
      <rect id="Rectangle_305" data-name="Rectangle 305" width="6.653" height="5.605" fill="none"/>
    </clipPath>
    <clipPath id="clip-path-20">
      <rect id="Rectangle_306" data-name="Rectangle 306" width="1.118" height="0.336" fill="none"/>
    </clipPath>
  </defs>
  <g id="Group_58" data-name="Group 58" clip-path="url(#clip-path)">
    <rect id="Rectangle_288" data-name="Rectangle 288" width="853.952" height="0.952" transform="translate(0 610.584)" fill="#eb3630"/>
    <g id="Group_57" data-name="Group 57" transform="translate(0 -0.002)">
      <g id="Group_56" data-name="Group 56" clip-path="url(#clip-path-2)">
        <path id="Path_296" data-name="Path 296" d="M823.71,713.829c-.25,6.933-6.474,12.362-13.893,12.129L248.064,710.526c-7.423-.234-13.237-6.041-12.987-12.974l12.782-339.3c.25-6.933,6.469-12.366,13.892-12.133l556.919,10.6c7.419.234,13.238,6.045,12.988,12.979Z" transform="translate(-123.201 -181.398)" fill="#fff"/>
        <path id="Path_297" data-name="Path 297" d="M823.71,680.912c-.25,6.933-6.474,12.362-13.893,12.129L248.064,677.609c-7.423-.234-13.237-6.041-12.987-12.974l12.782-339.3c.25-6.933,6.469-12.366,13.892-12.133l551.93-29.9c20.211,0,18.227,40.738,17.977,47.672Z" transform="translate(-123.201 -148.481)" fill="#fff"/>
        <path id="Path_298" data-name="Path 298" d="M636.856,1164.967c-33.476,0,143.255.483,143.255.483,9.277-12.621,2.882-93.8,2.882-93.8H662.167s8.173,93.319-25.311,93.319" transform="translate(-331.568 -561.654)" fill="#fff"/>
        <path id="Path_299" data-name="Path 299" d="M758.158,1274.034H589.038a2.848,2.848,0,0,1-2.839-2.839v-2.362a2.847,2.847,0,0,1,2.839-2.839h169.12a2.848,2.848,0,0,1,2.839,2.839v2.362a2.848,2.848,0,0,1-2.839,2.839" transform="translate(-307.23 -663.512)" fill="#fff"/>
        <path id="Path_300" data-name="Path 300" d="M626.64,1164.967c-33.476,0,140.838-.483,140.838-.483,9.277-12.621,5.3-92.836,5.3-92.836H651.952s8.173,93.319-25.311,93.319" transform="translate(-326.188 -561.654)" fill="#fff9f2"/>
        <path id="Path_301" data-name="Path 301" d="M626.117,1164.919c-1.467,0-2.536,0-3.236,0-.384,0-.672,0-.886-.012l-.114,0v-.01c-.458-.036-.51-.142-.511-.464,0-.344.206-.441.508-.471v0h.041c.1-.008.217-.009.337-.01l1.215-.01c.936-.006,2.257-.013,3.914-.021a16.2,16.2,0,0,0,10.911-5.583c18.309-19.982,12.715-86.5,12.656-87.17l-.045-.517h121.8l.023.452c.162,3.283,3.879,80.529-5.391,93.141l-.142.194h-.24c-1.273,0-113.074.313-139.524.435q-.65.049-1.315.049m25.827-93.319a313.726,313.726,0,0,1,.568,35.674c-1.149,25.777-5.7,43.174-13.513,51.705a18.221,18.221,0,0,1-7.082,4.921l12.6-.047c13.6-.047,31.743-.1,49.881-.159,34.544-.1,69.088-.2,72.31-.21,8.544-12.438,5.39-85.414,5.091-91.884Z" transform="translate(-325.664 -561.13)" fill="#eb3630"/>
        <path id="Path_302" data-name="Path 302" d="M791.64,713.3c-.25,6.933-6.474,12.362-13.893,12.129l-562.4-15.452c-7.42-.234-13.232-6.041-12.982-12.974L218.55,357.681c.25-6.934,3.06-12.821,10.48-12.587l561.757,15.432c7.419.233,13.238,6.045,12.988,12.979Z" transform="translate(-106.055 -180.86)" fill="#fff9f2"/>
        <path id="Path_303" data-name="Path 303" d="M795.171,628.418l-588.5-16.273s.2-5.621.453-12.559L219.9,260.294c.25-6.934,6.467-13.566,13.888-13.333L794.9,263.572c7.42.234,13.749,6.228,13.5,13.162Z" transform="translate(-108.317 -129.428)" fill="#fff"/>
        <path id="Path_304" data-name="Path 304" d="M801.092,629.431l-537.6-14.672,12-317.6,537.6,14.672Z" transform="translate(-138.095 -155.743)" fill="#fff"/>
        <path id="Path_305" data-name="Path 305" d="M799.9,628.749,243.773,613.572l12.414-329.107,556.131,15.177Z" transform="translate(-127.763 -149.088)" fill="#fff9f2"/>
        <g id="Group_4" data-name="Group 4" transform="translate(198.556 159.519)" style="mix-blend-mode: multiply;isolation: isolate">
          <g id="Group_3" data-name="Group 3">
            <g id="Group_2" data-name="Group 2" clip-path="url(#clip-path-3)">
              <path id="Path_306" data-name="Path 306" d="M421.909,335.639a21.91,21.91,0,0,0-2.8-.354c-3.4-.2-2.049-.054,2.8.354" transform="translate(-417.227 -335.195)" fill="#aacaf9"/>
            </g>
          </g>
        </g>
        <path id="Path_307" data-name="Path 307" d="M727.152,1274.034H562.627a2.848,2.848,0,0,1-2.839-2.839v-2.362a2.848,2.848,0,0,1,2.839-2.839H727.152a2.848,2.848,0,0,1,2.839,2.839v2.362a2.848,2.848,0,0,1-2.839,2.839" transform="translate(-293.388 -663.512)" fill="#dcdcdc"/>
        <path id="Path_308" data-name="Path 308" d="M777.682,675.454c-.158,0-.315,0-.474-.008l-562.4-15.452A14.367,14.367,0,0,1,204.8,655.55a12.5,12.5,0,0,1-3.436-9.024l16.171-384.659c.307-8.5,4.3-13.256,10.97-13.043l564.134,15.431a14.376,14.376,0,0,1,10.014,4.447,12.5,12.5,0,0,1,3.436,9.024l-14.5,385.132c-.254,7.033-6.447,12.595-13.909,12.595M228.07,249.769c-7.948,0-9.421,7.571-9.586,12.136l-16.171,384.66a11.552,11.552,0,0,0,3.18,8.336,13.4,13.4,0,0,0,9.342,4.142l562.4,15.452c.149,0,.3.007.444.007,6.956,0,12.725-5.155,12.961-11.677h0l14.5-385.132a11.551,11.551,0,0,0-3.181-8.339,13.417,13.417,0,0,0-9.347-4.146L228.476,249.776q-.206-.006-.405-.007" transform="translate(-105.531 -130.404)" fill="#eb3630"/>
        <path id="Path_309" data-name="Path 309" d="M727.152,1274.034H562.627a2.848,2.848,0,0,1-2.839-2.839v-2.362a2.848,2.848,0,0,1,2.839-2.839H727.152a2.848,2.848,0,0,1,2.839,2.839v2.362a2.848,2.848,0,0,1-2.839,2.839" transform="translate(-293.388 -663.512)" fill="#fff9f2"/>
        <path id="Path_310" data-name="Path 310" d="M726.628,1273.986H562.1a3.319,3.319,0,0,1-3.315-3.315v-2.362a3.319,3.319,0,0,1,3.315-3.315H726.628a3.319,3.319,0,0,1,3.315,3.315v2.362a3.319,3.319,0,0,1-3.315,3.315m-164.525-8.04a2.366,2.366,0,0,0-2.363,2.363v2.362a2.366,2.366,0,0,0,2.363,2.363H726.628a2.366,2.366,0,0,0,2.363-2.363v-2.362a2.366,2.366,0,0,0-2.363-2.363Z" transform="translate(-292.864 -662.988)" fill="#eb3630"/>
        <path id="Path_311" data-name="Path 311" d="M462.631,611.482l297.437,51.744c13.779,1.552,25.7-9.279,24.566-22.318l18.891-214.971c.34-12.994-14.051-24.574-25.135-24.807l-337.2-1.972c-24.126,2.1-16.978,40.747-15.92,52.9l16.088,133.245c.841,9.658,1.97,23.906,21.275,26.176" transform="translate(-221.941 -209.199)" fill="#eb3630"/>
        <path id="Path_312" data-name="Path 312" d="M454.842,613.525l308.52,19.383c13.779,1.552,13.054,5.617,11.919-7.422l13.426-204.955a21.864,21.864,0,0,0-21.14-19.495l-328.516-1.88c-24.126,2.1-20.233,28.356-17.91,47.527.777,6.41,25.365-7.8,25.365-7.8-12.951-.148-23.3,10.306-22.246,22.461L435.9,595c.841,9.658,8.735,17.38,18.942,18.529" transform="translate(-219.805 -209.199)"/>
        <path id="Path_313" data-name="Path 313" d="M633.258,384.637,856.9,421.393l55.265-291.279L726.425,98.847l-36.883,25.487Z" transform="translate(-331.894 -51.804)" fill="#fff9f2"/>
        <path id="Path_314" data-name="Path 314" d="M856.652,421.385l-.458-.075L632.059,384.474,688.488,123.5l37.2-25.7,186.409,31.379ZM633.2,383.7,855.89,420.3,910.977,129.95,725.908,98.8l-36.569,25.27Z" transform="translate(-331.266 -51.251)" fill="#eb3630"/>
        <path id="Path_315" data-name="Path 315" d="M999.2,352.75a4.021,4.021,0,0,0,3.363,4.577l53.322,10.08a3.882,3.882,0,1,0,1.439-7.61L1004,349.717a4.021,4.021,0,0,0-4.8,3.033" transform="translate(-523.651 -183.245)"/>
        <path id="Path_316" data-name="Path 316" d="M895.268,357.825a2.7,2.7,0,0,0,2.255,3.07l103.209,19.512a2.6,2.6,0,1,0,.965-5.1L898.488,355.79a2.7,2.7,0,0,0-3.22,2.034" transform="translate(-469.193 -186.442)" fill="#eb3630"/>
        <path id="Path_317" data-name="Path 317" d="M891.711,376.639a2.7,2.7,0,0,0,2.255,3.07L997.175,399.22a2.6,2.6,0,1,0,.965-5.1L894.931,374.6a2.7,2.7,0,0,0-3.22,2.035" transform="translate(-467.328 -196.302)" fill="#eb3630"/>
        <path id="Path_318" data-name="Path 318" d="M1035.724,423.182a2.7,2.7,0,0,0,2.255,3.07l33,6.238a2.6,2.6,0,1,0,.965-5.105l-33-6.238a2.7,2.7,0,0,0-3.22,2.035" transform="translate(-542.807 -220.696)" fill="#eb3630"/>
        <path id="Path_319" data-name="Path 319" d="M979.256,458.236a4.021,4.021,0,0,0,3.363,4.576l53.322,10.08a3.882,3.882,0,1,0,1.439-7.61L984.058,455.2a4.021,4.021,0,0,0-4.8,3.033" transform="translate(-513.2 -238.531)"/>
        <path id="Path_320" data-name="Path 320" d="M875.326,463.311a2.7,2.7,0,0,0,2.254,3.071l103.21,19.511a2.6,2.6,0,1,0,.965-5.106L878.546,461.276a2.7,2.7,0,0,0-3.22,2.035" transform="translate(-458.741 -241.728)" fill="#eb3630"/>
        <path id="Path_321" data-name="Path 321" d="M871.77,482.124a2.7,2.7,0,0,0,2.255,3.07l103.209,19.511a2.6,2.6,0,1,0,.965-5.1L874.99,480.089a2.7,2.7,0,0,0-3.22,2.035" transform="translate(-456.877 -251.588)" fill="#f2e0c9"/>
        <path id="Path_322" data-name="Path 322" d="M1015.781,528.671a2.7,2.7,0,0,0,2.256,3.069l33,6.238a2.6,2.6,0,1,0,.965-5.1l-33-6.238a2.7,2.7,0,0,0-3.221,2.035" transform="translate(-532.354 -275.983)" fill="#f2e0c9"/>
        <path id="Path_323" data-name="Path 323" d="M958.258,569.305a4.021,4.021,0,0,0,3.363,4.577l53.322,10.08a3.882,3.882,0,1,0,1.439-7.61l-53.322-10.08a4.021,4.021,0,0,0-4.8,3.033" transform="translate(-502.195 -296.743)"/>
        <path id="Path_324" data-name="Path 324" d="M854.329,574.382a2.7,2.7,0,0,0,2.255,3.069l103.209,19.512a2.6,2.6,0,1,0,.965-5.1L857.549,572.347a2.7,2.7,0,0,0-3.22,2.035" transform="translate(-447.736 -299.941)" fill="#f2e0c9"/>
        <path id="Path_325" data-name="Path 325" d="M850.773,593.195a2.7,2.7,0,0,0,2.254,3.071l103.21,19.511a2.6,2.6,0,1,0,.965-5.1L853.993,591.16a2.7,2.7,0,0,0-3.22,2.034" transform="translate(-445.872 -309.801)" fill="#f2e0c9"/>
        <path id="Path_326" data-name="Path 326" d="M994.785,639.74a2.7,2.7,0,0,0,2.255,3.07l33,6.238a2.6,2.6,0,1,0,.965-5.1l-33-6.237a2.7,2.7,0,0,0-3.22,2.033" transform="translate(-521.35 -334.196)" fill="#f2e0c9"/>
        <path id="Path_327" data-name="Path 327" d="M751.527,124.334l32.021,5.558,4.862-31.045Z" transform="translate(-393.88 -51.804)" fill="#eb3630"/>
        <path id="Path_328" data-name="Path 328" d="M786.206,225.606l6.617-35,35,6.617-6.617,35Zm31.016.775,4.759-25.175-25.174-4.759-4.759,25.175Z" transform="translate(-412.055 -99.895)"/>
        <path id="Path_329" data-name="Path 329" d="M795.72,194.024l32.267,6.1-6.1,32.264-32.267-6.1Zm29.676,7.864-27.909-5.276-5.277,27.911L820.12,229.8Z" transform="translate(-413.845 -101.687)"/>
        <path id="Path_330" data-name="Path 330" d="M830.373,222.1l-2.818-4.131-8.453,5.765L811.084,208l-4.455,2.27,10.6,20.791Z" transform="translate(-422.759 -109.013)"/>
        <path id="Path_331" data-name="Path 331" d="M819.811,231.085,830.5,223.8l-1.248-1.829-8.61,5.87-8.1-15.9-1.974,1.006Z" transform="translate(-424.822 -111.075)"/>
        <path id="Path_332" data-name="Path 332" d="M762.875,336.538l6.617-35,35,6.617-6.617,35Zm31.016.775,4.759-25.176-25.173-4.759-4.759,25.176Z" transform="translate(-399.827 -158.034)"/>
        <path id="Path_333" data-name="Path 333" d="M772.393,304.954l32.265,6.1-6.1,32.265-32.265-6.1Zm29.676,7.865-27.909-5.276-5.277,27.913,27.909,5.276Z" transform="translate(-401.619 -159.826)"/>
        <path id="Path_334" data-name="Path 334" d="M807.045,333.027l-2.818-4.131-8.453,5.763-8.016-15.731L783.3,321.2l10.6,20.79Z" transform="translate(-410.534 -167.149)"/>
        <path id="Path_335" data-name="Path 335" d="M796.486,342.014l10.688-7.288-1.249-1.831-8.608,5.871-8.1-15.9-1.973,1.008Z" transform="translate(-412.597 -169.213)"/>
        <path id="Path_336" data-name="Path 336" d="M739.932,442.972l6.616-35,35,6.617-6.616,35Zm31.017.777,4.759-25.176-25.173-4.759-4.759,25.176Z" transform="translate(-387.803 -213.819)"/>
        <path id="Path_337" data-name="Path 337" d="M749.452,411.391l32.266,6.1-6.1,32.266-32.266-6.1Zm29.675,7.865-27.909-5.276-5.276,27.91,27.909,5.276Z" transform="translate(-389.595 -215.61)"/>
        <path id="Path_338" data-name="Path 338" d="M784.105,439.461l-2.819-4.128-8.453,5.764-8.015-15.73-4.454,2.273,10.594,20.788Z" transform="translate(-398.511 -222.935)"/>
        <path id="Path_339" data-name="Path 339" d="M760.983,549.728l-2.819-4.128-8.453,5.764-8.015-15.73-4.454,2.273,10.594,20.789Z" transform="translate(-386.392 -280.726)"/>
        <path id="Path_340" data-name="Path 340" d="M773.541,448.452l10.689-7.294-1.249-1.825-8.608,5.868-8.1-15.9-1.973,1.008Z" transform="translate(-400.572 -224.998)"/>
        <path id="Path_341" data-name="Path 341" d="M716.945,552.117l6.616-35,35,6.617-6.616,35Zm31.015.777,4.759-25.172-25.174-4.759-4.759,25.173Z" transform="translate(-375.755 -271.022)"/>
        <path id="Path_342" data-name="Path 342" d="M726.461,520.538l32.267,6.1-6.1,32.265-32.266-6.1Zm29.676,7.867-27.909-5.276-5.276,27.907,27.909,5.276Z" transform="translate(-377.545 -272.815)"/>
        <path id="Path_343" data-name="Path 343" d="M1020.508,240.023a4.021,4.021,0,0,0,3.363,4.577l53.323,10.08a3.882,3.882,0,1,0,1.438-7.61l-53.322-10.08a4.022,4.022,0,0,0-4.8,3.033" transform="translate(-534.821 -124.164)"/>
        <path id="Path_344" data-name="Path 344" d="M916.579,245.1a2.7,2.7,0,0,0,2.255,3.07l103.209,19.511a2.6,2.6,0,1,0,.965-5.1L919.8,243.065a2.7,2.7,0,0,0-3.22,2.034" transform="translate(-480.362 -127.362)" fill="#eb3630"/>
        <path id="Path_345" data-name="Path 345" d="M913.022,263.914a2.7,2.7,0,0,0,2.255,3.07L1018.486,286.5a2.6,2.6,0,1,0,.965-5.1L916.242,261.879a2.7,2.7,0,0,0-3.22,2.034" transform="translate(-478.498 -137.222)" fill="#eb3630"/>
        <path id="Path_346" data-name="Path 346" d="M1057.034,310.458a2.7,2.7,0,0,0,2.255,3.07l33,6.238a2.6,2.6,0,1,0,.965-5.1l-33-6.238a2.7,2.7,0,0,0-3.22,2.034" transform="translate(-553.975 -161.616)" fill="#eb3630"/>
        <path id="Path_347" data-name="Path 347" d="M405.617,310.381,603.232,261.22,545.3,1.209,380.915,41.428,359.538,75.57Z" transform="translate(-188.436 -0.631)" fill="#fff9f2"/>
        <path id="Path_348" data-name="Path 348" d="M404.693,310.327l-.1-.491-46.114-235,21.579-34.465.188-.046L545.108,0l.106.474,58.031,260.464-.451.112Zm-45.2-235.3,45.945,234.135,196.679-48.929L544.391,1.15,380.662,41.208Z" transform="translate(-187.882 0.005)" fill="#eb3630"/>
        <path id="Path_349" data-name="Path 349" d="M596.177,228.785a3.613,3.613,0,0,1-2.844,4.236L545.85,244.1a3.488,3.488,0,1,1-1.581-6.776l47.483-11.083a3.613,3.613,0,0,1,4.426,2.54" transform="translate(-283.719 -118.519)"/>
        <path id="Path_350" data-name="Path 350" d="M643.389,229.323a2.422,2.422,0,0,1-1.907,2.842l-91.907,21.451a2.34,2.34,0,1,1-1.061-4.546l91.907-21.451a2.422,2.422,0,0,1,2.968,1.7" transform="translate(-286.45 -119.257)" fill="#eb3630"/>
        <path id="Path_351" data-name="Path 351" d="M647.3,246.077a2.423,2.423,0,0,1-1.907,2.842L553.485,270.37a2.34,2.34,0,1,1-1.061-4.546l91.906-21.451a2.422,2.422,0,0,1,2.968,1.7" transform="translate(-288.499 -128.038)" fill="#eb3630"/>
        <path id="Path_352" data-name="Path 352" d="M588.652,293.351a2.424,2.424,0,0,1-1.907,2.843l-29.383,6.858A2.34,2.34,0,1,1,556.3,298.5l29.382-6.858a2.423,2.423,0,0,1,2.969,1.7" transform="translate(-290.531 -152.814)" fill="#eb3630"/>
        <path id="Path_353" data-name="Path 353" d="M618.1,322.718a3.612,3.612,0,0,1-2.844,4.236l-47.483,11.083a3.488,3.488,0,1,1-1.581-6.776l47.482-11.083a3.614,3.614,0,0,1,4.426,2.54" transform="translate(-295.21 -167.75)"/>
        <path id="Path_354" data-name="Path 354" d="M665.314,323.257a2.424,2.424,0,0,1-1.907,2.843L571.5,347.551A2.34,2.34,0,1,1,570.439,343l91.906-21.451a2.424,2.424,0,0,1,2.969,1.7" transform="translate(-297.941 -168.488)" fill="#eb3630"/>
        <path id="Path_355" data-name="Path 355" d="M669.224,340.01a2.423,2.423,0,0,1-1.907,2.842L575.41,364.3a2.34,2.34,0,1,1-1.061-4.546l91.907-21.451a2.423,2.423,0,0,1,2.968,1.7" transform="translate(-299.99 -177.269)" fill="#eb3630"/>
        <path id="Path_356" data-name="Path 356" d="M610.577,387.287a2.423,2.423,0,0,1-1.908,2.841l-29.382,6.858a2.34,2.34,0,1,1-1.061-4.545l29.383-6.858a2.423,2.423,0,0,1,2.969,1.7" transform="translate(-302.022 -202.047)" fill="#eb3630"/>
        <path id="Path_357" data-name="Path 357" d="M641.187,421.625a3.613,3.613,0,0,1-2.845,4.237l-47.483,11.083a3.488,3.488,0,1,1-1.581-6.777l47.483-11.083a3.614,3.614,0,0,1,4.426,2.54" transform="translate(-307.309 -219.587)"/>
        <path id="Path_358" data-name="Path 358" d="M688.4,422.165a2.422,2.422,0,0,1-1.907,2.841l-91.906,21.451a2.339,2.339,0,1,1-1.061-4.545l91.906-21.451a2.422,2.422,0,0,1,2.968,1.7" transform="translate(-310.04 -220.326)" fill="#f2e0c9"/>
        <path id="Path_359" data-name="Path 359" d="M692.309,438.917a2.423,2.423,0,0,1-1.907,2.843L598.5,463.211a2.34,2.34,0,1,1-1.061-4.546l91.907-21.451a2.422,2.422,0,0,1,2.968,1.7" transform="translate(-312.089 -229.107)" fill="#f2e0c9"/>
        <path id="Path_360" data-name="Path 360" d="M633.662,486.193a2.423,2.423,0,0,1-1.908,2.842l-29.382,6.858a2.339,2.339,0,1,1-1.061-4.545l29.383-6.858a2.423,2.423,0,0,1,2.968,1.7" transform="translate(-314.121 -253.885)" fill="#f2e0c9"/>
        <path id="Path_361" data-name="Path 361" d="M359.539,119.864l28.4-6.8-7.023-27.346Z" transform="translate(-188.436 -44.925)" fill="#eb3630"/>
        <path id="Path_362" data-name="Path 362" d="M420.189,195.268l-6.98-31.235,31.234-6.981,6.981,31.235Zm25.87-10.385-5.021-22.466-22.466,5.021,5.021,22.466Z" transform="translate(-216.565 -82.309)"/>
        <path id="Path_363" data-name="Path 363" d="M416.345,166.628l28.795-6.436,6.435,28.793L422.78,195.42Zm27.284-4.059-24.906,5.567,5.567,24.908,24.906-5.567Z" transform="translate(-218.209 -83.955)"/>
        <path id="Path_364" data-name="Path 364" d="M431.742,187.013l1.99-4.029,8.243,4.07,5.161-15,4.248,1.462-6.821,19.826Z" transform="translate(-226.279 -90.171)"/>
        <path id="Path_365" data-name="Path 365" d="M445.767,294.658l-6.981-31.235,31.235-6.981L477,287.677Zm25.87-10.385-5.021-22.466-22.466,5.021,5.021,22.466Z" transform="translate(-229.97 -134.4)"/>
        <path id="Path_366" data-name="Path 366" d="M441.923,266.018l28.795-6.436,6.435,28.793-28.794,6.436Zm27.284-4.059L444.3,267.525l5.566,24.908,24.906-5.566Z" transform="translate(-231.614 -136.046)"/>
        <path id="Path_367" data-name="Path 367" d="M457.32,286.4l1.99-4.029,8.243,4.07,5.161-15,4.248,1.462-6.821,19.826Z" transform="translate(-239.684 -142.262)"/>
        <path id="Path_368" data-name="Path 368" d="M469.153,387.47l-6.981-31.235,31.235-6.981,6.981,31.235Zm25.87-10.385L490,354.619l-22.466,5.021,5.021,22.466Z" transform="translate(-242.227 -183.044)"/>
        <path id="Path_369" data-name="Path 369" d="M465.309,358.829l28.795-6.436,6.435,28.793-28.794,6.436Zm27.284-4.059-24.906,5.567,5.567,24.908,24.906-5.567Z" transform="translate(-243.871 -184.689)"/>
        <path id="Path_370" data-name="Path 370" d="M480.706,379.215l1.99-4.029,8.243,4.07,5.161-15,4.248,1.461-6.821,19.826Z" transform="translate(-251.941 -190.906)"/>
        <path id="Path_371" data-name="Path 371" d="M496.193,491.245l-6.981-31.235,31.235-6.981,6.981,31.235Zm25.87-10.385-5.021-22.466-22.466,5.021L499.6,485.88Z" transform="translate(-256.399 -237.433)"/>
        <path id="Path_372" data-name="Path 372" d="M492.349,462.6l28.795-6.435,6.435,28.793L498.784,491.4Zm27.284-4.059-24.906,5.567,5.566,24.908,24.906-5.567Z" transform="translate(-258.043 -239.078)"/>
        <path id="Path_373" data-name="Path 373" d="M507.746,482.99l1.99-4.029,8.243,4.07,5.161-15,4.248,1.461-6.821,19.826Z" transform="translate(-266.113 -245.295)"/>
        <path id="Path_374" data-name="Path 374" d="M572.748,128.4a3.613,3.613,0,0,1-2.844,4.237l-47.483,11.083a3.488,3.488,0,1,1-1.581-6.777l47.483-11.083a3.613,3.613,0,0,1,4.426,2.539" transform="translate(-271.44 -65.908)"/>
        <path id="Path_375" data-name="Path 375" d="M619.96,128.942a2.423,2.423,0,0,1-1.907,2.843l-91.907,21.451a2.34,2.34,0,1,1-1.061-4.546l91.906-21.451a2.423,2.423,0,0,1,2.968,1.7" transform="translate(-274.171 -66.647)" fill="#eb3630"/>
        <path id="Path_376" data-name="Path 376" d="M623.87,145.7a2.423,2.423,0,0,1-1.907,2.843l-91.907,21.451A2.34,2.34,0,1,1,529,165.444L620.9,143.992a2.423,2.423,0,0,1,2.968,1.7" transform="translate(-276.22 -75.428)" fill="#eb3630"/>
        <path id="Path_377" data-name="Path 377" d="M565.223,192.97a2.424,2.424,0,0,1-1.908,2.842l-29.382,6.858a2.34,2.34,0,1,1-1.061-4.546l29.382-6.858a2.423,2.423,0,0,1,2.969,1.7" transform="translate(-278.252 -100.205)" fill="#eb3630"/>
        <path id="Path_378" data-name="Path 378" d="M428.946,630.308,736.11,677.129c13.979,1.706,29.059-3.008,26.525-31.23l7.232-176.152a22.121,22.121,0,0,0-21.479-20.136L624.149,446.5a22.121,22.121,0,0,1-14.947-6.332l-16.544-16.247a22.118,22.118,0,0,0-15.172-6.336l-164.016.434c-13.128-.195-26.129,15.056-24.955,28.132l21.078,164.172a22.122,22.122,0,0,0,19.353,19.98" transform="translate(-203.584 -218.858)" fill="#f29791"/>
        <path id="Path_379" data-name="Path 379" d="M432.8,669.453l301,12.223a22.122,22.122,0,0,0,24.713-23.937l5.617-176.222a22.122,22.122,0,0,0-21.48-20.137l-124.238-3.107a22.124,22.124,0,0,1-14.947-6.332l-16.543-16.247a22.123,22.123,0,0,0-15.173-6.336l-160.888-2.381a22.122,22.122,0,0,0-22.36,24.1l24.946,198.4a22.122,22.122,0,0,0,19.353,19.98" transform="translate(-203.566 -223.778)" fill="#eb3630"/>
        <path id="Path_380" data-name="Path 380" d="M406.281,627.972c-.612.394-4.013.871-3.949,1.365.275,2.14-.408,5.373-2.269,11.738-1.668,5.7-9.342,17.009-10.721,22.605s5.3,10.207,10.693,5.138c5.774-5.422,5.219-16.51,6.207-22.8.642-4.085.951-7.987,1.7-12.05a8.207,8.207,0,0,1,1.316-4.2c-.529.736-1.536.25-2.976-1.788" transform="translate(-203.96 -329.121)" fill="#f29791"/>
        <g id="Group_7" data-name="Group 7" transform="translate(187.232 313.185)" style="mix-blend-mode: multiply;isolation: isolate">
          <g id="Group_6" data-name="Group 6">
            <g id="Group_5" data-name="Group 5" clip-path="url(#clip-path-4)">
              <path id="Path_381" data-name="Path 381" d="M406.394,665.644c-2.015,5.508-3.718,11.116-6.887,16.109a7.519,7.519,0,0,1-6.078,3.609c2.171,1.865,5.721,2.176,8.844-.758,5.774-5.423,5.219-16.511,6.207-22.805.2-1.25.361-2.482.517-3.708-.744,2.536-1.681,5.032-2.6,7.552" transform="translate(-393.43 -658.092)" fill="#f29791"/>
            </g>
          </g>
        </g>
        <path id="Path_382" data-name="Path 382" d="M141.555,733.283l69.31-128.557c-.43-.018-.861-.031-1.294-.076a16.811,16.811,0,0,1-11.054-6.1,17.52,17.52,0,0,1-5.873-4.2L122.969,723.606a4.569,4.569,0,0,0,1.937,6.145l10.5,5.47a4.569,4.569,0,0,0,6.144-1.937" transform="translate(-64.181 -311.498)" fill="#dcdcdc"/>
        <path id="Path_383" data-name="Path 383" d="M136.979,735.316a5,5,0,0,1-2.315-.568l-10.5-5.469a5.038,5.038,0,0,1-2.139-6.787l69.995-129.85.452.488a16.948,16.948,0,0,0,5.713,4.086l.1.044.072.086a16.349,16.349,0,0,0,10.74,5.937c.365.038.725.052,1.106.068l.918.038-.361.67L141.448,732.613a5.036,5.036,0,0,1-4.469,2.7m55.248-141.062L122.861,722.938a4.084,4.084,0,0,0,1.738,5.5l10.5,5.469a4.084,4.084,0,0,0,5.5-1.735l0-.006,68.95-127.89c-.187-.01-.375-.025-.564-.044a17.272,17.272,0,0,1-11.3-6.185,17.774,17.774,0,0,1-5.472-3.79" transform="translate(-63.654 -310.605)" fill="#414042"/>
        <path id="Path_384" data-name="Path 384" d="M294.981,591.2a19.335,19.335,0,0,1-12.647-.7c-13.567-5.772-26.072-13.886-31.6-27.894A26.5,26.5,0,0,0,294.981,591.2" transform="translate(-129.95 -294.862)" fill="#22a2ff"/>
        <path id="Path_385" data-name="Path 385" d="M294.774,591.623a19.33,19.33,0,0,1-12.646-.7c-13.567-5.772-26.073-13.886-31.6-27.895a26.5,26.5,0,0,0,44.242,28.592" transform="translate(-129.842 -295.085)" fill="#dcdcdc"/>
        <path id="Path_386" data-name="Path 386" d="M273.669,600.553a26.647,26.647,0,0,1-3.947-.294,26.98,26.98,0,0,1-20.139-38.727l.477-.956.392.994c4.621,11.72,14.579,20.5,31.34,27.631a18.754,18.754,0,0,0,12.333.677l1.447-.4-.951,1.163a27.156,27.156,0,0,1-20.951,9.916m-23.691-37.631a26.024,26.024,0,0,0,42.943,28.223,19.535,19.535,0,0,1-11.5-1.068c-16.532-7.034-26.557-15.683-31.44-27.155" transform="translate(-129.319 -293.799)" fill="#414042"/>
        <path id="Path_387" data-name="Path 387" d="M327.931,475.292a69.5,69.5,0,1,0-95.669-22.509,69.5,69.5,0,0,0,95.669,22.509m-88.073-27.212A60.562,60.562,0,1,1,323.229,467.7a60.562,60.562,0,0,1-83.371-19.616" transform="translate(-116.271 -181.704)" fill="#dcdcdc"/>
        <path id="Path_388" data-name="Path 388" d="M290.989,485.706a70.5,70.5,0,0,1-16.158-1.886,69.585,69.585,0,1,1,16.158,1.886m-.245-139a69.011,69.011,0,1,0,36.442,127.688l.25.4-.25-.4a69.007,69.007,0,0,0-36.442-127.688m.228,130.063a61.5,61.5,0,0,1-14.095-1.645,60.706,60.706,0,1,1,14.095,1.645M290.744,355.6a60.273,60.273,0,1,0,13.874,1.62,60.534,60.534,0,0,0-13.874-1.62" transform="translate(-115.776 -181.209)" fill="#414042"/>
        <g id="Group_10" data-name="Group 10" transform="translate(114.51 173.929)" opacity="0.2">
          <g id="Group_9" data-name="Group 9">
            <g id="Group_8" data-name="Group 8" clip-path="url(#clip-path-5)">
              <path id="Path_389" data-name="Path 389" d="M352.685,394.166a60.562,60.562,0,1,0-19.616,83.371,60.562,60.562,0,0,0,19.616-83.371" transform="translate(-240.621 -365.473)" fill="#fffcf8"/>
            </g>
          </g>
        </g>
        <g id="Group_13" data-name="Group 13" transform="translate(178.878 262.985)" opacity="0.77">
          <g id="Group_12" data-name="Group 12">
            <g id="Group_11" data-name="Group 11" clip-path="url(#clip-path-6)">
              <path id="Path_390" data-name="Path 390" d="M375.878,584.2a60.66,60.66,0,0,0,49.538-31.587q-24.753,15.819-49.538,31.587" transform="translate(-375.878 -552.608)" fill="#fff"/>
            </g>
          </g>
        </g>
        <g id="Group_16" data-name="Group 16" transform="translate(118.581 191.927)" opacity="0.77">
          <g id="Group_15" data-name="Group 15">
            <g id="Group_14" data-name="Group 14" clip-path="url(#clip-path-7)">
              <path id="Path_391" data-name="Path 391" d="M365.8,437.606a60.748,60.748,0,0,0-16.6-34.313q-49.911,32.03-100.023,63.746a60.742,60.742,0,0,0,24.011,29.485c30.974-19.477,61.751-39.265,92.614-58.918" transform="translate(-249.176 -403.293)" fill="#fff"/>
            </g>
          </g>
        </g>
        <g id="Group_19" data-name="Group 19" transform="translate(115.087 174.727)" opacity="0.77">
          <g id="Group_18" data-name="Group 18">
            <g id="Group_17" data-name="Group 17" clip-path="url(#clip-path-8)">
              <path id="Path_392" data-name="Path 392" d="M319.148,369.733c-1.379-.413-2.774-.8-4.2-1.115a60.562,60.562,0,0,0-72.307,45.9c-.333,1.491-.588,2.981-.807,4.47q38.692-24.574,77.314-49.259" transform="translate(-241.834 -367.15)" fill="#fff"/>
            </g>
          </g>
        </g>
        <path id="Path_393" data-name="Path 393" d="M411.048,629.644a14.872,14.872,0,0,0-4.579-1.674l1.94-1.577a23.785,23.785,0,0,0,7.086-2.549,23.546,23.546,0,0,1,5.79-2.231c-.451,4.269-2.749,6.005-6.251,7.886" transform="translate(-213.033 -325.788)" fill="#f29791"/>
        <path id="Path_394" data-name="Path 394" d="M197.945,737.615c-.01.012-1.224,1.519-2.979,3.437a49.648,49.648,0,0,1-6.264,5.9,1.182,1.182,0,0,1-1.417-1.893,47.676,47.676,0,0,0,5.937-5.607c.851-.93,1.575-1.765,2.083-2.363.256-.3.456-.544.592-.706l.156-.19.051-.064a1.182,1.182,0,0,1,1.841,1.482" transform="translate(-97.91 -385.578)" fill="#f29791"/>
        <path id="Path_395" data-name="Path 395" d="M181.242,745.716c.631.531.588,3.214.361,3.585-.984,1.61-2.322,1.66-1.971,7.393.316,5.136-.683,25.789-.689,30.738,0,0-6.889,5.581-9.47-.716-2.545-6.206-.474-20.2.221-25.568.451-3.483,2.358-7.352,3.377-10.707,1.233-4.057,2.4-.258,2.314-2.813,1.425.435.345,2.076.929,2.49,1,.711-.417-3.793,1.085-4.5" transform="translate(-88.175 -390.782)" fill="#f29791"/>
        <path id="Path_396" data-name="Path 396" d="M186.249,750.843c-.984,1.61-2.94.118-2.588,5.851.316,5.136-.683,25.789-.689,30.738,0,0-3.859,3.481-7.046,1.459,3.2-1.484,5.405-4.168,4.919-7.678-.242-1.749.934-21.6,1.241-23.533.022-.144.04-.251.053-.333.067-.217.135-.434.211-.648a16.66,16.66,0,0,1,.933-2.124c1.59-3.07.375-6.6-1.911-8.92.02-.011.037-.024.058-.033l3.842.094c.631.531,1.205,4.757.978,5.127" transform="translate(-92.204 -390.782)" fill="#f29791"/>
        <path id="Path_397" data-name="Path 397" d="M183.129,744.489c2.295-1.539,5.976-6.781,5.976-6.781l-1.6-1.906c-1.3-.828-.991-5.457-.745-7.687,0,0-8.091-3.13-9.914,16.141" transform="translate(-92.684 -381.509)" fill="#f29791"/>
        <path id="Path_398" data-name="Path 398" d="M187.539,749.049c-12.5,15.4-18.76,23.69-20.364,26.167-3.01,4.65-1.973,18.335,7.6,16.322,14.668-3.085,13.607-12.283,24.321-21.76,4.294-3.8,11.105-16.882,5.871-26.775-5.43-10.262-17.427,6.046-17.427,6.046" transform="translate(-86.832 -387.633)" fill="#eb3630"/>
        <path id="Path_399" data-name="Path 399" d="M254.147,672.079l13.38-6.6a32.17,32.17,0,0,0,4.7,5.835c4.2,4.089,6.3,9.449,7.842,14.853.551,1.928,1.2,3.328.5,4.165-.8.941-7.835,3.183-13.91,2.525l-8.214-4.847a24.781,24.781,0,0,1-2.742-5.181,23.057,23.057,0,0,1-1.554-10.749" transform="translate(-133.139 -348.778)" fill="#f29791"/>
        <path id="Path_400" data-name="Path 400" d="M240.144,677.2c.485-1.359-.026-2.74.275-3.921-.792-10.995,2.507-22.807,14.142-26.6,13.261-4.32,20.965,16.006,7.639,20.346-1.254,1.422-3.352,5.638,1.326,13.987-5.34,2.879-10.454-.261-10.387,6.1a17,17,0,0,0,16.912,16.56,16.827,16.827,0,0,0,13.371-7.075,10.257,10.257,0,0,1,3.387,9.31c-1.91,15.562-8.633,38.7-24.6,39.315-7.982.308-39.758-18.465-22.071-68.021" transform="translate(-123.095 -338.616)"/>
        <path id="Path_401" data-name="Path 401" d="M352.631,694.612c-10.347,2.892-38.555,14.007-43.112,18.819a13.046,13.046,0,0,0-2.964,5.047c.451,1.636,11.484,7.826,12.776,8.213,9.473,2.841,29.391-14.155,37.772-21.1,3.941-3.268.3-12.31-4.472-10.976" transform="translate(-160.667 -363.978)" fill="#eb3630"/>
        <g id="Group_22" data-name="Group 22" transform="translate(158.056 333.582)" style="mix-blend-mode: multiply;isolation: isolate">
          <g id="Group_21" data-name="Group 21">
            <g id="Group_20" data-name="Group 20" clip-path="url(#clip-path-9)">
              <path id="Path_402" data-name="Path 402" d="M334.57,725.177c-2.458-1.732-.142,2.577-2.445,4.633a2.879,2.879,0,0,0,.607.276c9.473,2.84,29.392-14.155,37.773-21.1a5.82,5.82,0,0,0,.17-8.029c.735,8.237-29.933,28.576-36.105,24.224" transform="translate(-332.125 -700.953)" fill="#eb3630"/>
            </g>
          </g>
        </g>
        <path id="Path_403" data-name="Path 403" d="M332.3,1050.667c-1.984-.482-16.85,10.207-17.281,15.017-4.748,53.121,3.615,44.741,4.47,89.083l11.175,3.13c-.042-36.744,2.116-97.9,1.733-98Z" transform="translate(-164.344 -550.65)" fill="#f29791"/>
        <g id="Group_25" data-name="Group 25" transform="translate(149.227 500.002)" style="mix-blend-mode: multiply;isolation: isolate">
          <g id="Group_24" data-name="Group 24">
            <g id="Group_23" data-name="Group 23" clip-path="url(#clip-path-10)">
              <path id="Path_404" data-name="Path 404" d="M315.021,1065.685c.43-4.81,15.3-15.5,17.281-15.017l.1,9.234c.1.025.027,4.186-.134,10.975a31.824,31.824,0,0,0-6.422,2.789c-2.977,1.654-5.983,3.919-7.483,7.081-2.383,5.022-.851,10.116-.642,15.389q.418,10.53,1.09,21.048c.8,12.758,1.84,25.5,2.986,38.229l-2.3-.645c-.855-44.342-9.218-35.962-4.47-89.083" transform="translate(-313.572 -1050.652)" fill="#f29791"/>
            </g>
          </g>
        </g>
        <path id="Path_405" data-name="Path 405" d="M320.773,1259.619c-2.762.854-3.291,7.664-2.1,10.22s24.882,2.629,24.946-1.6-1.422-4.426-6.5-5.3a27.621,27.621,0,0,0-9.023-.551c-5.385.6-4.482-3.639-7.315-2.763" transform="translate(-166.704 -660.108)" fill="#e3eeff"/>
        <path id="Path_406" data-name="Path 406" d="M320.532,1255.792c-2.737.853-3.8,7.643-2.626,10.2s24.7,3.513,24.762-.72-1.756-6.072-3.246-6.125c-6.286-.223-4.344-2.763-8.353-2.419-7.4.636-7.73-1.807-10.538-.932" transform="translate(-166.369 -658.065)"/>
        <path id="Path_407" data-name="Path 407" d="M318.4,1087.75c-.01-.1-.021-.206-.031-.309h0c.01.1.02.206.03.309Z" transform="translate(-166.861 -569.932)" fill="#0e1f30"/>
        <path id="Path_408" data-name="Path 408" d="M186.29,1054.285c6.945-9.823,18.993-4.719,17.7,4.142-7.6,52.161-18.547,46.332-28.716,93.639l-13.97-.23c8.72-35.7,18.04-87.727,24.984-97.55" transform="translate(-84.541 -549.753)" fill="#f29791"/>
        <g id="Group_28" data-name="Group 28" transform="translate(76.765 499.187)" style="mix-blend-mode: multiply;isolation: isolate">
          <g id="Group_27" data-name="Group 27">
            <g id="Group_26" data-name="Group 26" clip-path="url(#clip-path-11)">
              <path id="Path_409" data-name="Path 409" d="M200.8,1076.395c-5.424-.172-10.959-.345-15.216,3.705-3.711,3.531-4.569,9.376-5.717,14.128-1.471,6.087-3.375,12.088-4.959,18.15-3.43,13.121-6.546,26.321-9.649,39.522l-3.951-.065c8.72-35.7,18.039-87.727,24.984-97.551s18.993-4.719,17.7,4.142c-1.008,6.925-2.076,12.827-3.194,17.968" transform="translate(-161.307 -1048.94)" fill="#f29791"/>
            </g>
          </g>
        </g>
        <path id="Path_410" data-name="Path 410" d="M157.84,1257.5c3.1.753,3.925,7.54,2.694,10.138s-33.219,2.62-33.438-1.607,7.075-3.568,12.694-4.629a34.086,34.086,0,0,1,10.013-.877c6.008.407,4.856-3.8,8.036-3.025" transform="translate(-66.61 -659.009)" fill="#e3eeff"/>
        <path id="Path_411" data-name="Path 411" d="M158.388,1253.7c3.072.754,4.49,7.5,3.272,10.094s-32.981,3.5-33.2-.731,7.389-5.226,9.043-5.332c6.98-.45,4.734-2.919,9.2-2.719,8.253.368,8.531-2.086,11.684-1.312" transform="translate(-67.323 -656.987)"/>
        <path id="Path_412" data-name="Path 412" d="M250.041,1089.379l.1-.293h0q-.051.146-.1.293Z" transform="translate(-131.047 -570.794)" fill="#0e1f30"/>
        <path id="Path_413" data-name="Path 413" d="M182.609,978.779s14.6-22.606,29.7-79.6c4.313-16.283,11.813,1.219,11.813,1.219l-1.036-5.4s36.2-7.073,43.948,6.091,2.016,80.1,2.016,80.1-7.846,12.953-66.349,9.752c-35.029-1.916-20.094-12.161-20.094-12.161" transform="translate(-94.048 -467.628)"/>
        <g id="Group_31" data-name="Group 31" transform="translate(85.397 424.617)" style="mix-blend-mode: multiply;isolation: isolate">
          <g id="Group_30" data-name="Group 30">
            <g id="Group_29" data-name="Group 29" clip-path="url(#clip-path-12)">
              <path id="Path_414" data-name="Path 414" d="M182.609,978.779s14.6-22.607,29.7-79.6c4.313-16.283,11.813,1.219,11.813,1.219l-1.036-5.4s36.2-7.073,43.948,6.091a14.178,14.178,0,0,1,1.15,2.613,6.66,6.66,0,0,0-.531.825c-.465.863-.961,1.706-1.508,2.52-.1.148-.2.293-.307.439-.175.216-.349.432-.531.642a35.9,35.9,0,0,1-3.651,3.573l-.209.151q-.482.351-.974.688-1.189.811-2.432,1.536c-1.234.722-2.532,1.3-3.8,1.942.12-.072-.038,0-.856.441l-.038.017q-.682.28-1.369.544-1.149.442-2.312.844-2.094.726-4.223,1.343c-3.239.948-6.522,1.736-9.815,2.467-7.08,1.573-14.513,2.759-20.466,7.237a28.283,28.283,0,0,0-8.9,10.813,95.612,95.612,0,0,0-4.208,11.692c-.331,1.062-.665,2.124-1.025,3.177a11.273,11.273,0,0,1-.944,2.588c.1-.14.734-1.635.135-.355-.191.408-.373.821-.572,1.226-.4.81-.781,1.628-1.183,2.436-2.208,4.448-4.652,8.684-6.5,13.309-1.171,2.934.866,7.483,3.665,8.741,5.986,2.691,12.028,5.622,18.483,7,6.678,1.43,13.676,1.314,20.474,1.3q1.212,0,2.423-.018a256.416,256.416,0,0,1-34.3.114c-35.029-1.916-20.094-12.161-20.094-12.161" transform="translate(-179.445 -892.245)" fill="#5e98ff"/>
            </g>
          </g>
        </g>
        <path id="Path_415" data-name="Path 415" d="M285.668,742.48c5.293,8.839,3.1,21.378,1.639,30.516-2.421,15.181,8.614,39.253,10.594,42.958s-17.543,15.275-41.988,15.717-18.242-9.941-18.242-9.941,12.745-36.517.519-76.418c-2.9-9.464,35.037-12.455,35.037-12.455" transform="translate(-124.197 -384.093)" fill="#eb3630"/>
        <g id="Group_34" data-name="Group 34" transform="translate(111.221 366.357)" style="mix-blend-mode: multiply;isolation: isolate">
          <g id="Group_33" data-name="Group 33">
            <g id="Group_32" data-name="Group 32" clip-path="url(#clip-path-13)">
              <path id="Path_416" data-name="Path 416" d="M237.336,771.1l-3.627.327c4.13-4.61,6.461,2.161,6.461,2.161,15.161,16.727-.513,64.222,6.239,72.953s47.025-6.44,47.025-6.44c-42.571,22.807-59.717,5.538-59.409,4.9,7.916-16.255,8.354-47.166,8.3-47.229Z" transform="translate(-233.709 -769.823)" fill="#eb3630"/>
            </g>
          </g>
        </g>
        <path id="Path_417" data-name="Path 417" d="M294.62,718.167l0,0-.424-1.158c0-.013.008-.027.011-.04.127.346.267.756.416,1.2" transform="translate(-154.188 -375.763)" fill="#0f2c4a"/>
        <path id="Path_418" data-name="Path 418" d="M295.11,719.553c-.009-.024-.017-.048-.026-.071l0,0c.007.023.015.045.022.068" transform="translate(-154.655 -377.082)" fill="#0f2c4a"/>
        <path id="Path_419" data-name="Path 419" d="M289.41,722.542l-7.862-2.264c.753-1.435,4.449-.47,5.357-1.786a4.96,4.96,0,0,0,.661-1.442l.424,1.158.026.072c.458,1.38.986,3.078,1.394,4.263" transform="translate(-147.561 -375.807)" fill="#fb9d6f"/>
        <path id="Path_420" data-name="Path 420" d="M272.042,662.077a1.084,1.084,0,0,0,0-.773,7.468,7.468,0,0,0-1.921-2.193,11.754,11.754,0,0,0-4.88-3.17,6.259,6.259,0,0,0-5.143.624c-.161.1-.3.237-.446.352a.6.6,0,0,0-.185-.047,10.225,10.225,0,0,0-5.429,1.165,11.173,11.173,0,0,0-4.058,4.285,15.32,15.32,0,0,0-2.358,5.222,9.938,9.938,0,0,0,.517,4.5L254,686.9l6.374-.638c-1.157-5.671-3.769-11.31,1.957-16.378l3.5-2.3,6.747-4.429c.593-.389.057-1.165-.539-1.083" transform="translate(-129.732 -343.632)"/>
        <path id="Path_421" data-name="Path 421" d="M274.993,692.732a19.957,19.957,0,0,1,8.882-17.479s-6.385,1.327-8.672,5.111-.209,12.368-.209,12.368" transform="translate(-143.673 -353.901)"/>
        <path id="Path_422" data-name="Path 422" d="M242.21,679.885c13.64-3.221,7.647-24.115-5.927-20.91-11.909,2.813-16.175,14.311-16.3,25.334-.4,1.152,0,2.57-.6,3.885-21.732,47.92,8.38,69.261,16.359,69.616,15.958.709,24.575-21.793,27.768-37.143,1.279-6.152-2.288-10.583-6.856-12.358a11.119,11.119,0,0,0-1.95-2.595,8.055,8.055,0,0,0,.644-1.076l1-2.593a10.852,10.852,0,0,0-.1-5.548q-.3-1.915-.606-3.83a8.231,8.231,0,0,0-2.081-3.8,8.09,8.09,0,0,0-3.2-2.785,12.158,12.158,0,0,0-8.141-.9c-.178.059-.353.132-.53.2a29.811,29.811,0,0,1,.116-4q.153-.763.263-1.534.78-1.275.131.049" transform="translate(-110.927 -345.195)"/>
        <path id="Path_423" data-name="Path 423" d="M1077.734,960.659c1.2,17.26-7.8,39.511-25.606,41.182-16.809,1.578-30.817-18.554-30.91-35.875-.224-40.771,37.244-70.595,37.244-70.595,1.477,21.267,18.07,48.027,19.272,65.288" transform="translate(-535.226 -469.267)" fill="#f5e7d7"/>
        <path id="Path_424" data-name="Path 424" d="M1052.128,1001.842c-16.809,1.578-30.817-18.554-30.91-35.875-.224-40.771,37.244-70.594,37.244-70.594-26.988,65.543-6.334,106.469-6.334,106.469" transform="translate(-535.226 -469.268)" fill="#f5e7d7"/>
        <g id="Group_37" data-name="Group 37" transform="translate(485.993 426.105)" opacity="0.3" style="mix-blend-mode: multiply;isolation: isolate">
          <g id="Group_36" data-name="Group 36">
            <g id="Group_35" data-name="Group 35" clip-path="url(#clip-path-14)">
              <path id="Path_425" data-name="Path 425" d="M1052.128,1001.842c-16.809,1.578-30.817-18.554-30.91-35.875-.224-40.771,37.244-70.594,37.244-70.594-26.988,65.543-6.334,106.469-6.334,106.469" transform="translate(-1021.218 -895.373)" fill="#f5e7d7"/>
            </g>
          </g>
        </g>
        <g id="Group_40" data-name="Group 40" transform="translate(508.136 441.312)" style="mix-blend-mode: multiply;isolation: isolate">
          <g id="Group_39" data-name="Group 39">
            <g id="Group_38" data-name="Group 38" clip-path="url(#clip-path-15)">
              <path id="Path_426" data-name="Path 426" d="M1073.029,1010.825l-.9-3.243c-.308-1.038-.656-2.314-.95-3.821-.311-1.5-.747-3.195-1-5.106q-.226-1.426-.473-2.983c-.149-1.04-.23-2.13-.355-3.25-.289-2.244-.35-4.654-.5-7.184a145.509,145.509,0,0,1,.531-16.434,251.736,251.736,0,0,1,4.786-29.419c1.673-7.449,2.706-12.057,2.706-12.057s-1.363,4.512-3.263,11.905a192.178,192.178,0,0,0-5.368,29.428,123.917,123.917,0,0,0-.357,16.587c.207,2.554.331,4.983.689,7.239.161,1.129.278,2.224.46,3.267q.3,1.558.582,2.99c.325,1.912.834,3.6,1.212,5.095a38.381,38.381,0,0,0,1.13,3.791l1.074,3.194" transform="translate(-1067.751 -927.327)" fill="#f5e7d7"/>
            </g>
          </g>
        </g>
        <path id="Path_427" data-name="Path 427" d="M1517.862,696.234c-13.467,1.945-15.49-19.06-2.088-21,11.757-1.7,19.7,7.169,23.736,17.082.769.9.917,2.321,1.923,3.3,36.685,35.549,17.082,65.543,10,68.7-14.162,6.319-29.954-10.938-38.3-23.666-3.346-5.1-1.7-10.373,1.794-13.6a10.789,10.789,0,0,1,.838-3.038,7.887,7.887,0,0,1-.965-.742l-1.825-1.986a10.538,10.538,0,0,1-1.887-5.046q-.408-1.838-.816-3.676a7.983,7.983,0,0,1,.525-4.177,7.85,7.85,0,0,1,1.9-3.653,11.8,11.8,0,0,1,7.032-3.712c.182-.01.366-.007.549-.01a29.116,29.116,0,0,0-1.529-3.576q-.411-.634-.784-1.292-1.158-.874-.1.091" transform="translate(-789.661 -353.783)"/>
        <path id="Path_428" data-name="Path 428" d="M1451.047,779.1c7.9-6.81,33.093-24.333,39.527-24.252,1.746.022,2.479,8.95,3.042,10.458a4.67,4.67,0,0,1,1.267,4.121c-2.8,9.184-27.245,16.149-37.368,19.188-4.761,1.429-10.113-6.374-6.468-9.516" transform="translate(-759.871 -395.618)" fill="#808285"/>
        <path id="Path_429" data-name="Path 429" d="M1497.326,765.308c-.562-1.509-1.3-10.436-3.042-10.458a5.787,5.787,0,0,0-1.229.145,3.5,3.5,0,0,1-.556,1.571c-2.6,4.1-2.74,6.527-6.277,9.781-1.944,1.788-4.031,6.772-4.9,8.942-.9,2.254-3.305,4.436-5.91,5.754a67.973,67.973,0,0,1-18.491,6.661,4.992,4.992,0,0,0,4.3.914c10.123-3.039,34.571-10,37.368-19.188a4.669,4.669,0,0,0-1.267-4.121" transform="translate(-763.582 -395.619)" fill="#6d6e71"/>
        <path id="Path_430" data-name="Path 430" d="M1373.53,807.385c.491-.5,1.385-3.741,1.907-3.55,2.268.829,5.817,1,12.861.812,6.311-.164,19.313-4.808,25.477-4.714s10.37,7.894,4.323,11.91c-6.47,4.3-18.755,1.683-25.626,1.022-4.458-.429-8.4-.953-12.844-1.272-.946-.068-6.32-.442-7.4.772.427-3.122,3.332-3.027,1.3-4.981" transform="translate(-719.192 -419.247)" fill="#a7a9ac"/>
        <g id="Group_43" data-name="Group 43" transform="translate(653.036 380.787)" style="mix-blend-mode: multiply;isolation: isolate">
          <g id="Group_42" data-name="Group 42">
            <g id="Group_41" data-name="Group 41" clip-path="url(#clip-path-16)">
              <path id="Path_431" data-name="Path 431" d="M1420.121,809.217c-4.325-1.159-8.635-4.658-8.333-9.071-6.651.671-17.794,4.466-23.489,4.614-7.044.183-10.594.017-12.861-.812-.523-.191-1.416,3.046-1.907,3.55,2.028,1.954-.876,1.858-1.3,4.981,1.081-1.214,6.456-.84,7.4-.772,4.448.319,8.386.842,12.844,1.272,6.871.662,19.156,3.275,25.626-1.022a6.674,6.674,0,0,0,2.409-2.66,3.691,3.691,0,0,1-.388-.079" transform="translate(-1372.228 -800.146)" fill="#a7a9ac"/>
            </g>
          </g>
        </g>
        <path id="Path_432" data-name="Path 432" d="M1390.82,768.735a1.424,1.424,0,0,1-1.141-.569,40.286,40.286,0,0,0-5.725-5.6,1.428,1.428,0,0,1,1.779-2.233,42.393,42.393,0,0,1,6.226,6.113,1.428,1.428,0,0,1-1.14,2.287" transform="translate(-725.057 -398.33)" fill="#f99e82"/>
        <path id="Path_433" data-name="Path 433" d="M1390.271,749.869c-1.894-2.027-4.1-4.074-4.1-4.074s-6.951.364-8.084.164c-2.825-.5-.039,8.273,2.543,8.864,3.484.8,5.282-.438,9.051.689" transform="translate(-721.642 -390.873)" fill="#f99e82"/>
        <path id="Path_434" data-name="Path 434" d="M1383.859,753.623h-.045a42.42,42.42,0,0,1-8.646-1.17,1.428,1.428,0,1,1,.8-2.741,40.266,40.266,0,0,0,7.937,1.057,1.428,1.428,0,0,1-.044,2.855" transform="translate(-720.194 -392.895)" fill="#f99e82"/>
        <path id="Path_435" data-name="Path 435" d="M1466.244,853.553a1.9,1.9,0,0,1-1.532-.771,53.4,53.4,0,0,0-7.536-7.5,1.9,1.9,0,0,1,2.4-2.957,56.288,56.288,0,0,1,8.2,8.191,1.9,1.9,0,0,1-1.529,3.036" transform="translate(-763.346 -441.242)" fill="#f99e82"/>
        <path id="Path_436" data-name="Path 436" d="M1224.547,1000.229,1013.8,1061.19a15.045,15.045,0,0,1-18.654-14.125L975.99,894.444c-1.31-9.415,7.574-19.057,15.136-20.172l86.476-12.414c16.676-.53,15.576,24.054,29.572,22.106,35.382-4.925,109.559-17.13,109.559-17.13a15.045,15.045,0,0,1,17.078,14.428l3.118,98.128c.225,7.091.634,17.543-12.383,20.838" transform="translate(-511.454 -451.698)" fill="#f29791"/>
        <path id="Path_437" data-name="Path 437" d="M1237.777,1001.116l-209.424,40.391c-9.3,2.3-18.349,6.894-18.654-2.679L993.411,889.32a15.045,15.045,0,0,1,12.843-15.362l83.616-12.322c16.676-.53,15.576,30.922,29.572,28.974C1154.825,885.684,1229,873.48,1229,873.48a15.045,15.045,0,0,1,17.079,14.428l3.118,98.128a15.045,15.045,0,0,1-11.421,15.081" transform="translate(-520.649 -451.582)" fill="#eb3630"/>
        <path id="Path_438" data-name="Path 438" d="M1290,986.035l-3.118-98.128A15.046,15.046,0,0,0,1269.8,873.48s-74.176,12.2-109.559,17.13c-14,1.948-12.9-29.5-29.572-28.974l-59.418,8.534,27.614,132.06,179.71-1.114A15.045,15.045,0,0,0,1290,986.035" transform="translate(-561.451 -451.582)" fill="#eb3630"/>
        <path id="Path_439" data-name="Path 439" d="M1011.032,770.831s-8.281,1.18-19.8-20.169l41.9-5.662,1.843,21.663s-8.86,2.937-23.951,4.168" transform="translate(-519.513 -390.456)" fill="#fff"/>
        <path id="Path_440" data-name="Path 440" d="M1026.318,652.647c-23.669,2.565,23.943,69.446-2.923,69.761l165.6-11.548-54.235-57.151Z" transform="translate(-534.319 -342.054)"/>
        <path id="Path_441" data-name="Path 441" d="M1026.472,721.939l-.038-.951,1.678-.117a6.67,6.67,0,0,0,4.81-2.632c3.977-5.554-.408-18.943-4.649-31.89-4.377-13.368-8.512-25.994-4.7-31.9a7.4,7.4,0,0,1,5.763-3.218l.028,0h.028l108.64,1.064.139.146,54.93,57.883-164.947,11.5a14.149,14.149,0,0,1-1.685.117m2.942-69.761a6.4,6.4,0,0,0-5.039,2.785c-3.568,5.528.688,18.523,4.8,31.09,4.512,13.779,8.774,26.794,4.518,32.741a6.732,6.732,0,0,1-1.953,1.824l159.28-11.108-53.4-56.273Z" transform="translate(-535.674 -341.308)" fill="#231f20"/>
        <path id="Path_442" data-name="Path 442" d="M1036.552,642s153.424-19.079,184.636-1.282,2.43,170.852,44.5,184.543c29.983,9.757-123.508,32.927-157.437,39.752-69.68,14.016-19.168-202.473-71.7-223.013" transform="translate(-543.263 -331.822)" fill="#fff"/>
        <path id="Path_443" data-name="Path 443" d="M1099.991,865.578a22.5,22.5,0,0,1-14.237-4.771c-8.566-6.7-14.21-20.041-17.762-41.986-3.111-19.224-4.172-42.828-5.2-65.655-2.252-50.1-4.58-101.911-28.532-111.276l-1.749-.683,1.864-.232c.384-.048,38.855-4.8,80.644-7.317,56.173-3.383,91.261-1.333,104.287,6.094,14.628,8.341,16.256,45.3,17.979,84.429,2.01,45.625,4.088,92.8,26.436,100.074,2.912.948,4.281,2.078,4.183,3.455-.18,2.547-5.249,6.969-47.006,15.945-26.218,5.635-59.146,11.391-83.188,15.594-13.322,2.329-24.828,4.34-31.48,5.678a31.672,31.672,0,0,1-6.24.653m-63.769-223.868c10.16,4.948,17.146,18.035,21.328,39.917,3.9,20.4,5.065,46.373,6.194,71.5,2.044,45.484,4.157,92.515,22.6,106.934,5.406,4.227,11.851,5.514,19.7,3.935,6.663-1.34,18.174-3.353,31.5-5.682,24.035-4.2,56.952-9.956,83.153-15.587,37.925-8.151,46.087-12.7,46.256-15.081.059-.841-1.194-1.722-3.529-2.482-22.976-7.477-25.069-54.989-27.092-100.938-1.712-38.859-3.328-75.563-17.5-83.644-28.939-16.5-165.6-.89-182.613,1.133" transform="translate(-541.146 -331.272)" fill="#414042"/>
        <path id="Path_444" data-name="Path 444" d="M1185.833,1065.577a1.221,1.221,0,0,1-1.221,1.466c-12.147,1.188-24.3,2.036-36.5,2.294a2.043,2.043,0,0,1-1.974-1.146c-.2-.654.362-1.211,1.248-1.233,12.222-.35,24.389-1.28,36.548-2.542a1.762,1.762,0,0,1,1.9,1.162" transform="translate(-600.676 -557.858)" fill="#f2e0c9"/>
        <path id="Path_445" data-name="Path 445" d="M1175.61,1080.562c.221.641-.3,1.189-1.164,1.238-7.477.4-14.949.628-22.436.638a2.255,2.255,0,0,1-2.023-1.046c-.229-.581.311-1.066,1.2-1.071,7.5-.076,14.978-.366,22.461-.827a1.975,1.975,0,0,1,1.966,1.068" transform="translate(-602.687 -565.764)" fill="#f2e0c9"/>
        <path id="Path_446" data-name="Path 446" d="M1107.008,683.014l-4.719-.039a1.015,1.015,0,0,1-.93-.662c-.1-.361.142-.648.552-.645l4.719.044a1.021,1.021,0,0,1,.939.655c.1.359-.147.65-.561.647" transform="translate(-577.216 -357.264)" fill="#eb3630"/>
        <path id="Path_447" data-name="Path 447" d="M1253.584,684.13l-9.209-.069a.982.982,0,0,1-.928-.566c-.089-.308.18-.553.6-.55l9.211.081a.976.976,0,0,1,.921.556c.088.3-.179.55-.6.547m-18.517-.138-9.387-.069a1,1,0,0,1-.944-.58c-.092-.316.183-.567.613-.563l9.392.083a.994.994,0,0,1,.94.569c.09.311-.185.562-.613.56m-18.837-.137-9.495-.068a1.016,1.016,0,0,1-.957-.595c-.095-.325.181-.583.616-.579l9.5.084a1.011,1.011,0,0,1,.954.583c.093.319-.185.578-.618.574m-19.017-.137-9.531-.068a1.026,1.026,0,0,1-.964-.611c-.1-.334.175-.6.612-.595l9.536.085a1.025,1.025,0,0,1,.964.6c.1.328-.181.594-.617.591m-19.053-.137-9.5-.069a1.035,1.035,0,0,1-.966-.628c-.1-.342.168-.615.6-.611l9.5.085a1.034,1.034,0,0,1,.969.615c.1.337-.175.61-.61.607m-18.948-.139-9.389-.071a1.035,1.035,0,0,1-.96-.643c-.1-.35.158-.629.586-.625l9.394.085a1.037,1.037,0,0,1,.967.631c.1.346-.166.625-.6.622m-18.7-.142-9.212-.072a1.026,1.026,0,0,1-.946-.655c-.1-.357.148-.641.568-.637l9.213.084a1.033,1.033,0,0,1,.957.645c.1.353-.156.639-.581.636" transform="translate(-592.414 -357.404)" fill="#eb3630"/>
        <path id="Path_448" data-name="Path 448" d="M1412.129,685.528l-4.718-.037a.965.965,0,0,1-.908-.554c-.089-.3.173-.543.586-.539l4.717.042a.96.96,0,0,1,.9.549c.089.3-.171.543-.581.54" transform="translate(-737.148 -358.694)" fill="#eb3630"/>
        <path id="Path_449" data-name="Path 449" d="M1137.579,1015.834c-1.884.158-2.826.232-4.713.371a.8.8,0,0,1-.823-.737.753.753,0,0,1,.668-.849c1.887-.14,2.829-.216,4.713-.374a.786.786,0,0,1,.82.732.76.76,0,0,1-.666.856" transform="translate(-593.308 -531.568)" fill="#f2e0c9"/>
        <path id="Path_450" data-name="Path 450" d="M1277.6,980.489q-4.479.465-8.951.981a.708.708,0,0,1-.775-.712.849.849,0,0,1,.708-.887q4.475-.517,8.954-.984a.719.719,0,0,1,.773.726.835.835,0,0,1-.71.876m-17.887,2.086q-4.464.587-8.924,1.207a.694.694,0,0,1-.778-.693.864.864,0,0,1,.7-.9q4.463-.62,8.931-1.208a.7.7,0,0,1,.775.7.855.855,0,0,1-.7.894m-17.838,2.493q-4.455.663-8.908,1.343a.693.693,0,0,1-.786-.684.868.868,0,0,1,.692-.912q4.457-.679,8.916-1.342a.692.692,0,0,1,.78.69.864.864,0,0,1-.694.906m-17.812,2.719-8.9,1.388a.7.7,0,0,1-.794-.684.86.86,0,0,1,.682-.915l8.911-1.386a.7.7,0,0,1,.789.684.864.864,0,0,1-.686.913m-17.807,2.764q-4.453.679-8.909,1.342a.715.715,0,0,1-.8-.69.842.842,0,0,1,.675-.91q4.46-.662,8.917-1.342a.707.707,0,0,1,.8.688.851.851,0,0,1-.678.912m-17.824,2.627q-4.46.62-8.925,1.206a.738.738,0,0,1-.811-.7.817.817,0,0,1,.67-.9q4.468-.587,8.932-1.207a.726.726,0,0,1,.805.7.828.828,0,0,1-.671.9m-17.861,2.311q-4.474.515-8.953.98a.768.768,0,0,1-.818-.72.783.783,0,0,1,.668-.873q4.481-.468,8.956-.984a.752.752,0,0,1,.814.713.8.8,0,0,1-.666.884" transform="translate(-608.381 -513.036)" fill="#f2e0c9"/>
        <path id="Path_451" data-name="Path 451" d="M1428.943,977.95c-1.886.139-2.828.213-4.712.371a.735.735,0,0,1-.774-.741.824.824,0,0,1,.714-.867c1.884-.159,2.826-.234,4.713-.374a.744.744,0,0,1,.773.751.812.812,0,0,1-.715.859" transform="translate(-746.042 -511.702)" fill="#f2e0c9"/>
        <path id="Path_452" data-name="Path 452" d="M1146.791,1078.17c-1.874.094-2.813.136-4.693.207a.868.868,0,0,1-.883-.591c-.078-.342.194-.636.6-.652,1.881-.076,2.819-.12,4.694-.219a.85.85,0,0,1,.878.591.568.568,0,0,1-.6.664" transform="translate(-598.11 -564.414)" fill="#f2e0c9"/>
        <path id="Path_453" data-name="Path 453" d="M1284.719,1048.4q-4.43.321-8.854.729a.769.769,0,0,1-.823-.676.721.721,0,0,1,.642-.815q4.426-.417,8.859-.75a.788.788,0,0,1,.822.7.71.71,0,0,1-.646.809m-17.666,1.612q-4.393.476-8.779,1.009a.743.743,0,0,1-.824-.636.725.725,0,0,1,.629-.817q4.391-.54,8.786-1.027a.753.753,0,0,1,.821.658.719.719,0,0,1-.634.814m-17.531,2.115q-4.369.573-8.735,1.177a.734.734,0,0,1-.83-.608.718.718,0,0,1,.619-.812q4.369-.61,8.743-1.193a.736.736,0,0,1,.825.624.718.718,0,0,1-.622.812m-17.457,2.4-8.72,1.233a.737.737,0,0,1-.838-.589.7.7,0,0,1,.609-.8l8.729-1.249a.734.734,0,0,1,.832.6.705.705,0,0,1-.612.8m-17.443,2.451q-4.366.6-8.735,1.177a.755.755,0,0,1-.849-.58.672.672,0,0,1,.6-.775q4.374-.582,8.744-1.193a.743.743,0,0,1,.842.586.682.682,0,0,1-.6.784m-17.489,2.284q-4.387.532-8.78,1.009a.785.785,0,0,1-.862-.578.636.636,0,0,1,.6-.74q4.4-.485,8.788-1.028a.767.767,0,0,1,.853.581.65.65,0,0,1-.6.755m-17.595,1.893q-4.424.407-8.856.731a.826.826,0,0,1-.874-.583.6.6,0,0,1,.6-.695q4.434-.332,8.861-.751a.8.8,0,0,1,.866.583.611.611,0,0,1-.6.716" transform="translate(-613.096 -548.679)" fill="#f2e0c9"/>
        <path id="Path_454" data-name="Path 454" d="M1433.768,1046.786c-1.88.07-2.819.111-4.691.205a.815.815,0,0,1-.827-.728.706.706,0,0,1,.654-.807c1.874-.1,2.813-.143,4.693-.217a.829.829,0,0,1,.827.746.7.7,0,0,1-.656.8" transform="translate(-748.552 -547.813)" fill="#f2e0c9"/>
        <path id="Path_455" data-name="Path 455" d="M1202.153,897.943a3.9,3.9,0,0,1-3.075,4.057c-22.39,3.136-44.79,6.2-67.323,8.125-1.758.148-3.287-1.417-3.409-3.509s1.208-3.907,2.964-4.052c22.582-1.864,45.046-4.791,67.5-7.784a3.045,3.045,0,0,1,3.342,3.163" transform="translate(-591.368 -468.942)" fill="#eb3630"/>
        <path id="Path_456" data-name="Path 456" d="M1209.709,1003.38a3.375,3.375,0,0,1-2.758,3.7c-21.9,3.377-43.817,6.618-65.934,8.19a3.447,3.447,0,0,1-3.639-2.826,2.917,2.917,0,0,1,2.73-3.336c22.187-1.721,44.173-5.039,66.146-8.484a3.011,3.011,0,0,1,3.454,2.754" transform="translate(-596.089 -524.411)" fill="#f2e0c9"/>
        <g id="Group_46" data-name="Group 46" transform="translate(523.65 462.819)" style="mix-blend-mode: multiply;isolation: isolate">
          <g id="Group_45" data-name="Group 45">
            <g id="Group_44" data-name="Group 44" clip-path="url(#clip-path-17)">
              <path id="Path_457" data-name="Path 457" d="M1117.566,1006.13c6.808-.352,13.624-.177,20.436-.3,8.055-.148,16.075-1.343,24.106-1.937,9.5-.7-2.276,2.293,7.249,2.149,4.847-.074,30.993-3.38,35.839-3.475,4.078-.08,8.144-.409,12.193-.876,5.922-.805,11.806-1.851,17.695-2.861,5.251-.9,10.547-.4,15.772-1.443,4.855-.967,16.676-2.655,21.481-3.837,4.978-1.225,5.815-.115,10.882-.915.13-.02-2.6-3.039-2.469-3.059a127.691,127.691,0,0,1-3.339-14.56,23.538,23.538,0,0,1-6.935,11.1,28.739,28.739,0,0,1-12.822,6.041c-5.3,1.074-10.746,1.542-16.123,2.116-7.018.749-14.041,1.472-21.074,2.066-13.615,1.151-27.312,1.919-40.965,1.015a179.488,179.488,0,0,1-38.71-6.7,202.5,202.5,0,0,1-37.276-15.493,10.335,10.335,0,0,1-3.16-2.643c.794,12.459,1.865,24.379,3.564,35.085a98.633,98.633,0,0,1,13.654-1.474" transform="translate(-1100.348 -972.52)" fill="#cad8ef"/>
            </g>
          </g>
        </g>
        <path id="Path_458" data-name="Path 458" d="M1409.118,903.319a3.623,3.623,0,0,1-3.146,3.691q-7.874.694-15.732,1.542a2.986,2.986,0,0,1-3.248-3.112,3.732,3.732,0,0,1,3.151-3.8q7.868-.809,15.746-1.482a3.045,3.045,0,0,1,3.228,3.158" transform="translate(-726.93 -471.771)" fill="#f2e0c9"/>
        <path id="Path_459" data-name="Path 459" d="M1273.283,907.694a4.056,4.056,0,0,1-3.194,4.2c-28.183,4.239-56.335,8.752-84.738,11.278a3.542,3.542,0,0,1-3.619-3.526,3.722,3.722,0,0,1,3.08-4.142c28.473-2.51,56.715-6.891,84.985-11.013a3.112,3.112,0,0,1,3.486,3.205" transform="translate(-619.346 -474.028)" fill="#eb3630"/>
        <path id="Path_460" data-name="Path 460" d="M1409.627,934.172a3.617,3.617,0,0,1-3.116,3.723q-7.854.711-15.688,1.6a2.983,2.983,0,0,1-3.264-3.083,3.74,3.74,0,0,1,3.116-3.833q7.846-.872,15.7-1.587a3.076,3.076,0,0,1,3.247,3.182" transform="translate(-727.227 -487.929)" fill="#f2e0c9"/>
        <path id="Path_461" data-name="Path 461" d="M1199.032,829.851a3.709,3.709,0,0,1-3.106,3.915c-22.663,2.358-45.331,4.671-68.069,6.177-1.76.118-3.29-1.524-3.421-3.654s1.184-3.935,2.943-4.042c22.783-1.371,45.507-3.479,68.227-5.625a3.211,3.211,0,0,1,3.426,3.23" transform="translate(-589.318 -433.227)" fill="#eb3630"/>
        <path id="Path_462" data-name="Path 462" d="M1214.665,858.563a3.822,3.822,0,0,1-3.128,3.95c-27.192,3.327-54.365,6.856-81.685,8.984-1.761.137-3.283-1.479-3.4-3.612s1.209-3.964,2.971-4.087c27.377-2,54.629-5.3,81.9-8.4a3.079,3.079,0,0,1,3.347,3.169" transform="translate(-590.376 -448.305)" fill="#eb3630"/>
        <path id="Path_463" data-name="Path 463" d="M1194.362,766.889a3.248,3.248,0,0,1-3.015,3.553c-22.893,1.394-45.788,2.766-68.707,3.632a3.738,3.738,0,0,1-3.546-3.555,3.152,3.152,0,0,1,2.8-3.737c22.962-.709,45.906-1.854,68.848-3.018a3.466,3.466,0,0,1,3.621,3.125" transform="translate(-586.511 -400.288)" fill="#eb3630"/>
        <path id="Path_464" data-name="Path 464" d="M1211.189,795.007a3.477,3.477,0,0,1-3.092,3.683c-27.5,2.265-55,4.672-82.565,6.131-1.762.1-3.312-1.541-3.471-3.632s1.125-3.839,2.887-3.926c27.617-1.273,55.182-3.394,82.754-5.387a3.267,3.267,0,0,1,3.487,3.13" transform="translate(-588.071 -415.02)" fill="#eb3630"/>
        <path id="Path_465" data-name="Path 465" d="M1185.879,708.325c.314,1.589-.947,2.932-2.8,2.968-23.1.388-46.2.769-69.3.951a4.034,4.034,0,0,1-3.794-3.174,2.5,2.5,0,0,1,2.526-3.142c23.14-.047,46.28-.226,69.419-.411a3.95,3.95,0,0,1,3.939,2.808" transform="translate(-581.721 -369.763)" fill="#eb3630"/>
        <path id="Path_466" data-name="Path 466" d="M1333.032,704.983a2.268,2.268,0,0,1-2.309,2.691c-4.638.142-36.842.833-41.479.993a3.345,3.345,0,0,1-3.334-2.58,2.262,2.262,0,0,1,2.344-2.7c4.638-.123,36.843-.78,41.482-.891a3.305,3.305,0,0,1,3.3,2.486" transform="translate(-673.93 -368.18)" fill="#eb3630"/>
        <path id="Path_467" data-name="Path 467" d="M1380.206,760.626a2.348,2.348,0,0,1-2.35,2.82c-4.8.217-38.127,1.417-42.925,1.652a3.462,3.462,0,0,1-3.491-2.62,2.342,2.342,0,0,1,2.385-2.83c4.8-.2,38.13-1.361,42.93-1.546a3.422,3.422,0,0,1,3.45,2.524" transform="translate(-697.788 -397.322)" fill="#eb3630"/>
        <path id="Path_468" data-name="Path 468" d="M1361.514,731.769a2.269,2.269,0,0,1-2.309,2.691c-4.638.142-36.842.833-41.479.993a3.345,3.345,0,0,1-3.334-2.58,2.262,2.262,0,0,1,2.343-2.7c4.639-.123,36.843-.78,41.482-.891a3.305,3.305,0,0,1,3.3,2.486" transform="translate(-688.857 -382.219)" fill="#eb3630"/>
        <path id="Path_469" data-name="Path 469" d="M1205.028,734.082a2.89,2.89,0,0,1-2.929,3.2c-27.79,1.034-55.578,2.146-83.381,2.761a3.862,3.862,0,0,1-3.662-3.389,2.827,2.827,0,0,1,2.675-3.457c27.855-.432,55.7-1.262,83.549-2.029a3.63,3.63,0,0,1,3.749,2.92" transform="translate(-584.386 -383.203)" fill="#eb3630"/>
        <path id="Path_470" data-name="Path 470" d="M1411.479,704.2c.069,1.373-.639,2.519-1.572,2.535q-4.207.079-8.415.2c-.949.028-1.772-1.114-1.84-2.528s.638-2.55,1.591-2.569q4.207-.061,8.414-.092c.934-.008,1.753,1.082,1.823,2.458" transform="translate(-733.563 -367.785)" fill="#eb3630"/>
        <path id="Path_471" data-name="Path 471" d="M1305.745,764.092c.15,1.7-.673,3.15-1.829,3.213q-5.208.294-10.414.64c-1.175.079-2.247-1.3-2.4-3.046s.671-3.189,1.85-3.257q5.209-.274,10.418-.509c1.157-.054,2.222,1.258,2.373,2.958" transform="translate(-676.666 -398.912)" fill="#eb3630"/>
        <path id="Path_472" data-name="Path 472" d="M1333.972,792.318c.15,1.7-.672,3.15-1.829,3.213q-5.207.294-10.413.64c-1.175.079-2.247-1.3-2.4-3.046s.671-3.189,1.85-3.257q5.208-.273,10.417-.509c1.157-.054,2.221,1.258,2.373,2.958" transform="translate(-691.46 -413.705)" fill="#eb3630"/>
        <path id="Path_473" data-name="Path 473" d="M1382.421,820.63a2.443,2.443,0,0,1-2.417,2.958c-4.99.274-39.651,1.858-44.64,2.151a3.6,3.6,0,0,1-3.658-2.691,2.436,2.436,0,0,1,2.452-2.968c4.992-.254,39.655-1.8,44.647-2.042a3.56,3.56,0,0,1,3.615,2.591" transform="translate(-697.923 -428.734)" fill="#eb3630"/>
        <path id="Path_474" data-name="Path 474" d="M1305.514,826.433c.152,1.73-.686,3.209-1.864,3.274q-5.3.3-10.61.652c-1.2.08-2.29-1.322-2.444-3.1s.684-3.249,1.885-3.318q5.307-.278,10.614-.519c1.179-.055,2.264,1.282,2.418,3.014" transform="translate(-676.399 -431.555)" fill="#eb3630"/>
        <path id="Path_475" data-name="Path 475" d="M1101.32,1232.223v10.833l48.944-10.833Z" transform="translate(-577.208 -645.813)" fill="#f2e0c9"/>
        <path id="Path_476" data-name="Path 476" d="M1270.8,1017.183l-221.615,49.052c-9.4,1.86-19.86-.579-19.56-19.847l1.878-120.954A15.044,15.044,0,0,1,1045.06,910.7l84.1-8.356a15.043,15.043,0,0,0,9.819-5.046l10.4-11.851a15.047,15.047,0,0,1,9.972-5.061l111.261-7.955c8.894-.792,18.479,8.9,18.34,17.825l-6.038,112.406a15.045,15.045,0,0,1-12.12,14.524" transform="translate(-539.63 -457.218)" fill="#f29791"/>
        <path id="Path_477" data-name="Path 477" d="M1279.685,1024.394l-223.21,44.2a15.045,15.045,0,0,1-17.965-14.992l1.878-120.954a15.044,15.044,0,0,1,13.556-14.737l84.1-8.356a15.045,15.045,0,0,0,9.819-5.046l10.4-11.851a15.046,15.046,0,0,1,9.972-5.061l109-9.707a15.044,15.044,0,0,1,16.377,15.219l-1.813,116.764a15.044,15.044,0,0,1-12.12,14.524" transform="translate(-544.289 -460.072)" fill="#eb3630"/>
        <path id="Path_478" data-name="Path 478" d="M1545.468,691.245c-13.26,3.054-17.016-17.712-3.821-20.751,11.577-2.667,20.23,5.512,25.07,15.057.841.832,1.106,2.237,2.19,3.125,39.5,32.388,22.453,63.9,15.657,67.638-13.589,7.471-30.757-8.419-40.129-20.412-3.757-4.807-2.554-10.2.661-13.7a10.779,10.779,0,0,1,.583-3.1,7.892,7.892,0,0,1-1.023-.66l-1.984-1.828a10.544,10.544,0,0,1-2.3-4.872q-.558-1.8-1.117-3.6a7.981,7.981,0,0,1,.178-4.206,7.844,7.844,0,0,1,1.587-3.8,11.8,11.8,0,0,1,6.7-4.282c.18-.025.364-.037.546-.055a29.028,29.028,0,0,0-1.82-3.437q-.461-.6-.888-1.223-1.225-.775-.092.1" transform="translate(-803.683 -351.14)"/>
        <path id="Path_479" data-name="Path 479" d="M1526.249,1196.056c1.967-.252,11.943,2.088,11.943,2.088l-2.659,33-11.121,1.809c4.024-35.444,1.456-36.845,1.836-36.894" transform="translate(-798.953 -626.848)" fill="#f99e82"/>
        <path id="Path_480" data-name="Path 480" d="M1511.1,1260.343c2.126,1.068,1.8,7.686.566,10.043s-36.034,2.351-35.62-1.737,8.926-6.653,18.1-6.849c1.747-.037,7.438-.269,10.767.559,4.262,1.06,4-3.112,6.184-2.017" transform="translate(-773.604 -660.454)" fill="#fff"/>
        <path id="Path_481" data-name="Path 481" d="M1496.358,1271.933c-6.461,0-14.547-.433-18.628-1.66-.7-.209-2.815-.845-2.678-2.2.48-4.737,9.961-7.092,18.566-7.277l.526-.013c2.172-.055,7.258-.187,10.366.586a3.146,3.146,0,0,0,3.671-1.165c.594-.648,1.333-1.458,2.611-.815a3.026,3.026,0,0,1,1.378,1.9,14.244,14.244,0,0,1-.6,8.788c-.843,1.609-10.443,1.827-14.531,1.847l-.677,0m.7-10.237c-1.16,0-2.183.026-2.891.045l-.53.013c-9.706.208-17.29,2.968-17.64,6.421-.02.2.278.539,1.174.9,6.773,2.735,32.3,2.149,33.558.556a13.55,13.55,0,0,0,.534-8.044,2.19,2.19,0,0,0-.9-1.342h0c-.605-.3-.839-.095-1.482.607a4.064,4.064,0,0,1-4.6,1.446,33.538,33.538,0,0,0-7.222-.6" transform="translate(-773.08 -659.93)" fill="#231f20"/>
        <path id="Path_482" data-name="Path 482" d="M1511.71,1256.669c2.106,1.067,2.213,7.711.987,10.068s-36.134,2.345-35.722-1.743,8.848-6.657,17.941-6.858c1.732-.039,3.486-2.752,6.363-1.224,6.449,3.425,8.27-1.337,10.43-.243" transform="translate(-774.089 -658.508)"/>
        <path id="Path_483" data-name="Path 483" d="M1509.448,1263.9a.238.238,0,0,1-.238-.228c-.074-1.734-.524-2.986-1.3-3.619a2.18,2.18,0,0,0-1.8-.427.242.242,0,0,1-.273-.2.239.239,0,0,1,.2-.273,2.649,2.649,0,0,1,2.18.528c.885.721,1.394,2.093,1.475,3.968a.239.239,0,0,1-.228.248Z" transform="translate(-789.215 -659.905)" fill="#f7f5ee"/>
        <path id="Path_484" data-name="Path 484" d="M1502.792,1264.671a.238.238,0,0,1-.238-.228,4.573,4.573,0,0,0-1.221-3.4,2.048,2.048,0,0,0-1.689-.4.238.238,0,0,1-.075-.47,2.5,2.5,0,0,1,2.064.5,5,5,0,0,1,1.4,3.75.239.239,0,0,1-.228.248Z" transform="translate(-785.828 -660.439)" fill="#f7f5ee"/>
        <path id="Path_485" data-name="Path 485" d="M1495.342,1265.782a.238.238,0,0,1-.238-.228,4.106,4.106,0,0,0-1.093-3.053,1.824,1.824,0,0,0-1.507-.356.242.242,0,0,1-.273-.2.239.239,0,0,1,.2-.273,2.312,2.312,0,0,1,1.882.457,4.537,4.537,0,0,1,1.268,3.4.239.239,0,0,1-.228.248Z" transform="translate(-782.086 -661.229)" fill="#f7f5ee"/>
        <path id="Path_486" data-name="Path 486" d="M1538.784,910.939l-10.628,77.055,26.873,8.062,26.816-86.23Z" transform="translate(-800.915 -476.843)"/>
        <path id="Path_487" data-name="Path 487" d="M1674.807,1221.729l11.6-4.694,4.008,23.377-9.483,1.283Z" transform="translate(-877.776 -637.852)" fill="#f99e82"/>
        <path id="Path_488" data-name="Path 488" d="M1673.134,1258.386c2.161.995,2.063,7.62.909,10.018s-35.932,3.583-35.658-.517,8.694-6.954,17.858-7.464c1.745-.1,7.424-.523,10.78.191,4.3.914,3.894-3.247,6.111-2.227" transform="translate(-858.686 -659.44)" fill="#fff"/>
        <path id="Path_489" data-name="Path 489" d="M1653.789,1270.542c-5.207,0-10.552-.29-13.651-1.106-.7-.185-2.843-.749-2.752-2.1.318-4.75,9.712-7.429,18.307-7.907l.523-.031c2.167-.13,7.248-.436,10.382.231a3.143,3.143,0,0,0,3.629-1.29c.572-.668,1.285-1.5,2.583-.9a3.023,3.023,0,0,1,1.442,1.852,14.244,14.244,0,0,1-.3,8.8c-.788,1.637-10.375,2.183-14.459,2.343-1.795.07-3.738.111-5.7.111m7.532-10.38c-2.005,0-3.925.115-5.049.183l-.527.031c-9.694.54-17.178,3.558-17.41,7.021-.013.2.295.529,1.2.86,6.863,2.5,32.36,1.043,33.559-.592a13.559,13.559,0,0,0,.258-8.057,2.189,2.189,0,0,0-.944-1.311c-.615-.282-.841-.067-1.462.658a4.064,4.064,0,0,1-4.55,1.6,26.152,26.152,0,0,0-5.079-.4" transform="translate(-858.162 -658.918)" fill="#231f20"/>
        <path id="Path_490" data-name="Path 490" d="M1673.616,1254.767c2.142.994,2.476,7.63,1.332,10.029s-36.033,3.58-35.761-.52,8.615-6.956,17.7-7.468c1.729-.1,3.39-2.869,6.318-1.44,6.563,3.2,8.219-1.619,10.416-.6" transform="translate(-859.107 -657.552)"/>
        <path id="Path_491" data-name="Path 491" d="M1671.281,1263.262a.237.237,0,0,1-.236-.22c-.134-1.731-.626-2.966-1.423-3.573a2.194,2.194,0,0,0-1.818-.365.238.238,0,1,1-.091-.467,2.643,2.643,0,0,1,2.2.453c.908.692,1.464,2.045,1.609,3.915a.237.237,0,0,1-.219.255h-.019" transform="translate(-873.957 -659.623)" fill="#f7f5ee"/>
        <path id="Path_492" data-name="Path 492" d="M1664.655,1264.263a.237.237,0,0,1-.236-.219,4.573,4.573,0,0,0-1.337-3.358,2.053,2.053,0,0,0-1.7-.341.238.238,0,0,1-.091-.467,2.5,2.5,0,0,1,2.081.43,5,5,0,0,1,1.522,3.7.237.237,0,0,1-.218.256h-.019" transform="translate(-870.59 -660.274)" fill="#f7f5ee"/>
        <path id="Path_493" data-name="Path 493" d="M1657.247,1265.631a.237.237,0,0,1-.237-.219,4.1,4.1,0,0,0-1.2-3.014,1.828,1.828,0,0,0-1.517-.3.238.238,0,1,1-.092-.466,2.308,2.308,0,0,1,1.9.392,4.539,4.539,0,0,1,1.382,3.356.236.236,0,0,1-.218.255h-.019" transform="translate(-866.877 -661.195)" fill="#f7f5ee"/>
        <path id="Path_494" data-name="Path 494" d="M1648.6,1094.719l-28.161-.747s.724,5.587,4.237,15.652c4.245,12.163,19.673,46.446,20.9,50.441s19.172,3.766,17.871-1.139-10.525-46.539-14.848-64.207" transform="translate(-849.281 -573.355)"/>
        <path id="Path_495" data-name="Path 495" d="M1550.255,1081.764l-26.873-7.683s-4.136,65.51-4.333,69.312,20.72,7.088,21.246,1.941,4.125-47.592,9.96-63.57" transform="translate(-796.141 -562.93)"/>
        <path id="Path_496" data-name="Path 496" d="M1548.358,910.94l-1.936,14.028c2.177,1.15,4.366,2.278,6.55,3.415a37.94,37.94,0,0,1,7,4.109c2.986,2.49,4.25,6.237,5.119,9.895a54.629,54.629,0,0,1,1.362,15.251,101.29,101.29,0,0,1-1.948,15.882c-1.036,4.953-2.837,9.79-3.145,14.872a4.227,4.227,0,0,1-.894,2.417,24.348,24.348,0,0,1-.562,3.838l4.7,1.411,26.816-86.23Z" transform="translate(-810.489 -476.843)"/>
        <path id="Path_497" data-name="Path 497" d="M1580.146,915.266l19.216,83.062s23.818,4.411,28.12.471c-10.135-44.508,5.617-55.864-7.584-84.909-3.331-7.33-39.752,1.377-39.752,1.377" transform="translate(-828.163 -477.433)"/>
        <path id="Path_498" data-name="Path 498" d="M1664.907,1100.984c2.031,6.267,4.4,12.415,6.714,18.58,2.481,6.605,4.609,13.337,6.444,20.151a88.882,88.882,0,0,1,2.288,10.058c.493,3.337.761,6.695,1.085,10.051.1,1.033.213,2.073.353,3.113,2.639-.6,4.465-1.733,4.018-3.418-1.3-4.905-10.525-46.539-14.848-64.207l-7.857-.208c.565,1.98,1.175,3.943,1.8,5.881" transform="translate(-871.642 -573.948)"/>
        <path id="Path_499" data-name="Path 499" d="M1585.187,936.981c2.32-3.753,8.448-6.842,13.284-7.019s10.794-2.79,14.931.131c4.891,3.453,5.029,10.293,4.627,15.708-.506,6.811-3.229,30.738,2.134,54.623,3.343-.069,6.106-.516,7.318-1.627-10.135-44.508,5.617-55.864-7.584-84.909-3.331-7.33-39.752,1.377-39.752,1.377l4.406,21.773c.2-.033.517.133.634-.057" transform="translate(-828.163 -477.433)"/>
        <path id="Path_500" data-name="Path 500" d="M1568.44,1089.556c-.722,2.845-1.348,5.724-1.826,8.62-.887,5.374-1.092,10.809-1.44,16.235-.364,5.663-.713,11.328-.907,17-.172,5.044-.129,10.079-.45,15.117-.128,2.023-.285,4.094-.276,6.152a1.812,1.812,0,0,0,.073-.344c.526-5.148,4.125-47.592,9.96-63.571l-4.638-1.326c-.147.7-.316,1.405-.5,2.116" transform="translate(-819.461 -569.931)"/>
        <path id="Path_501" data-name="Path 501" d="M1514.752,763.767c-1.913,9.817,4.233,20.54,8.581,28.4,7.224,13.06,5.1,38.681,4.514,42.718s21.06,8.15,43.523.483,13.371-15.1,13.371-15.1-23.695-29.128-25.708-69.592c-.478-9.6-36.1.2-36.1.2" transform="translate(-793.702 -391.221)" fill="#6d6e71"/>
        <path id="Path_502" data-name="Path 502" d="M1573,766.811l3.419-.9c-5.293-2.845-19.9,11.348-19.9,11.348-6.635,13.893-6.22,24.468-16.588,30.689-2.8-.051,2.785,8.187-1.445,9.117l2.9,11.038c8.867-.854,18.31-2.308,18.814-2.771,10.715-9.846,17.023-32.445,17.056-32.521Z" transform="translate(-806.333 -401.219)" fill="#58595b"/>
        <path id="Path_503" data-name="Path 503" d="M1567.04,761.634c-4.889,18.622-12.374,36.938-11.282,39.587,2.638,6.4.566,11.559,8.227,5.947,11.738-8.6,15.89-19.154,21.573-31.825,2.278-5.079,3.065-19.377-5.524-26.032-8.91-6.9-12.994,12.323-12.994,12.323" transform="translate(-815.325 -391.931)" fill="#6d6e71"/>
        <path id="Path_504" data-name="Path 504" d="M1469.685,858.116c.527-.524,1.612-3.97,2.134-3.748,2.26.96,5.86,1.249,13.031,1.274,6.426.022,19.9-4.553,26.162-4.26s10.11,8.794,3.742,12.913c-6.814,4.407-19.161,1.219-26.111.294-4.51-.6-8.485-1.285-12.989-1.766-.959-.1-3.739.231-6.951.159.605-3.336,2.936-2.7.981-4.865" transform="translate(-769.756 -446.204)" fill="#f29791"/>
        <path id="Path_505" data-name="Path 505" d="M1461.769,855.205c-1.457-2.209-6.517-5.79-6.517-5.79l-1.906,1.506c-.838,1.234-4.091,1.082-6.274.817-3.784-.459-5.062,8.349-1.64,9.164,4.617,1.1,13.377,2.231,16.18-.44" transform="translate(-756.515 -445.181)" fill="#f29791"/>
        <g id="Group_49" data-name="Group 49" transform="translate(706.003 405.246)" style="mix-blend-mode: multiply;isolation: isolate">
          <g id="Group_48" data-name="Group 48">
            <g id="Group_47" data-name="Group 47" clip-path="url(#clip-path-18)">
              <path id="Path_506" data-name="Path 506" d="M1519.465,851.541c2.366,1.564,3.715,4.632,2.219,7.255-2.241,3.929-8.154,5.445-12.278,5.811-5.134.456-10.219-.895-15.269-1.586a54.491,54.491,0,0,0-10.61-.1c4.461.481,8.411,1.159,12.886,1.755,6.95.925,19.3,4.113,26.11-.294,6.132-3.966,2.8-11.993-3.059-12.843" transform="translate(-1483.528 -851.541)" fill="#f99e82"/>
            </g>
          </g>
        </g>
        <path id="Path_507" data-name="Path 507" d="M1444.671,854.5a1.919,1.919,0,0,1-.358-.034,56.362,56.362,0,0,1-11.1-3.335,1.9,1.9,0,0,1,1.625-3.443,53.381,53.381,0,0,0,10.188,3.037,1.9,1.9,0,0,1-.354,3.774" transform="translate(-750.583 -444.182)" fill="#f29791"/>
        <path id="Path_508" data-name="Path 508" d="M1445.038,859.674a2.032,2.032,0,0,1-.22-.012,56.316,56.316,0,0,1-11.314-2.511,1.9,1.9,0,0,1,1.367-3.554,53.4,53.4,0,0,0,10.383,2.282,1.9,1.9,0,0,1-.216,3.795" transform="translate(-750.668 -447.306)" fill="#f29791"/>
        <path id="Path_509" data-name="Path 509" d="M1445.415,864.8a2.018,2.018,0,0,1-.22-.012,56.326,56.326,0,0,1-11.314-2.511,1.9,1.9,0,0,1,1.367-3.553,53.4,53.4,0,0,0,10.384,2.282,1.9,1.9,0,0,1-.216,3.795" transform="translate(-750.865 -449.994)" fill="#f29791"/>
        <path id="Path_510" data-name="Path 510" d="M1448.914,870.7q-.083,0-.167-.007a56.313,56.313,0,0,1-11.381-2.191,1.9,1.9,0,0,1,1.267-3.591,53.331,53.331,0,0,0,10.443,1.989,1.9,1.9,0,0,1-.162,3.8" transform="translate(-752.666 -453.246)" fill="#f29791"/>
        <path id="Path_511" data-name="Path 511" d="M1545.533,725.042l8.463-.821,3.706,12.31s-9.771,9.17-10.653,2.333c-.311-2.41-1.516-13.821-1.516-13.821" transform="translate(-810.023 -379.566)" fill="#f29791"/>
        <g id="Group_52" data-name="Group 52" transform="translate(735.97 350.011)" style="mix-blend-mode: multiply;isolation: isolate">
          <g id="Group_51" data-name="Group 51">
            <g id="Group_50" data-name="Group 50" clip-path="url(#clip-path-19)">
              <path id="Path_512" data-name="Path 512" d="M1547.277,741.081c-.206-1.619-.622-4.137-.781-5.605a4.841,4.841,0,0,0,1.222,1c1.356.756,4.159-1.672,5.431-.746Z" transform="translate(-1546.498 -735.476)" fill="#f99e82"/>
            </g>
          </g>
        </g>
        <path id="Path_513" data-name="Path 513" d="M1545.979,685.571h-14.484a31.276,31.276,0,0,1-1.588,7.1c-1.9,5.366-1.424,10.932-.448,16.3.348,1.916.382,3.415,1.358,3.839,1.1.477,8.189-.594,13.2-3.777l5.07-7.748a24.1,24.1,0,0,0,.162-5.688,22.385,22.385,0,0,0-3.265-10.027" transform="translate(-801.15 -359.309)" fill="#f29791"/>
        <path id="Path_514" data-name="Path 514" d="M1524.214,719.6c.1,1.292,1.527.792,2.439,2.6.467.926,1.362-.761,1.26-2.053s-1.522-5.814-1.607-4.757c-.341,4.2-2.194,2.915-2.092,4.207" transform="translate(-798.847 -374.858)" fill="#f29791"/>
        <path id="Path_515" data-name="Path 515" d="M1521.246,683.508a1.055,1.055,0,0,1-.328-.675,7.25,7.25,0,0,1,.73-2.735,11.416,11.416,0,0,1,2.887-4.856,6.078,6.078,0,0,1,4.746-1.665c.184.019.359.079.54.115a.586.586,0,0,1,.141-.12,9.924,9.924,0,0,1,5.227-1.318,10.855,10.855,0,0,1,5.374,1.987,14.9,14.9,0,0,1,4.3,3.534,9.643,9.643,0,0,1,1.482,4.138l1.274,15.462-5.824,2.183c-1.428-5.435-1.576-11.467-8.739-13.42l-4.032-.5-7.777-.958c-.683-.084-.55-.99,0-1.175" transform="translate(-797.049 -352.325)"/>
        <g id="Group_55" data-name="Group 55" transform="translate(694.492 370.043)" style="mix-blend-mode: multiply;isolation: isolate">
          <g id="Group_54" data-name="Group 54">
            <g id="Group_53" data-name="Group 53" clip-path="url(#clip-path-20)">
              <path id="Path_516" data-name="Path 516" d="M1459.341,777.9a5.449,5.449,0,0,1,.665-.222c.818-.215.5-.113-.665.222" transform="translate(-1459.34 -777.568)" fill="#aacaf9"/>
            </g>
          </g>
        </g>
        <path id="Path_517" data-name="Path 517" d="M1543.481,710.146a19.377,19.377,0,0,0-15.24-11.4s6.129-1.587,9.745.726,5.5,10.679,5.5,10.679" transform="translate(-800.96 -365.934)"/>
      </g>
    </g>
  </g>
</svg>
