<svg id="Group_68" data-name="Group 68" xmlns="http://www.w3.org/2000/svg" xmlns:xlink="http://www.w3.org/1999/xlink" width="89.697" height="89.697" viewBox="0 0 89.697 89.697">
  <defs>
    <clipPath id="clip-path">
      <rect id="Rectangle_311" data-name="Rectangle 311" width="89.697" height="89.697" fill="none" stroke="#eb342e" stroke-width="2"/>
    </clipPath>
  </defs>
  <g id="Group_67" data-name="Group 67" clip-path="url(#clip-path)">
    <circle id="Ellipse_3" data-name="Ellipse 3" cx="44.378" cy="44.378" r="44.378" transform="translate(0.47 0.47)" fill="none" stroke="#eb342e" stroke-miterlimit="10" stroke-width="2"/>
    <path id="Path_519" data-name="Path 519" d="M92.978,87.291a2.166,2.166,0,0,0-.42-2.552l-7.9-7.632a1.954,1.954,0,0,0-2.434-.226c-1.038.685-2.411,1.576-3,1.894C76.78,80.095,71.7,74.738,69.6,71.1s-4.214-10.676-1.852-12.143c.568-.353,2.024-1.1,3.135-1.661a1.954,1.954,0,0,0,1.014-2.224L69.2,44.427a2.165,2.165,0,0,0-2.005-1.633c-2.486-.108-7.088.6-8.8,6.859-1.828,6.7.587,17.161,5.124,24.99S75.934,89.77,82.653,91.514C88.936,93.144,91.836,89.5,92.978,87.291Z" transform="translate(-30.602 -22.66)" fill="none" stroke="#eb342e" stroke-miterlimit="10" stroke-width="2"/>
  </g>
</svg>
