<svg xmlns="http://www.w3.org/2000/svg" width="58" height="49.928" viewBox="0 0 58 49.928">
  <path id="Path_521" data-name="Path 521" d="M.265,11.106c-.23-.3-.459-.623,0-.918S8.757,4.614,9.511,4.319s.984,0,1.115-.164,1.9-1.541,1.935-.164a5.57,5.57,0,0,1-.131.623c-.1.361-.1.853.131.918a9.92,9.92,0,0,1,.885,1.016l1.213-.066V5.368h.82v-.3h.459s.23.525,2.558.918c.164,1.115.2,1.254.2,1.254a2.042,2.042,0,0,0,1.082,0c.1-.205.393-.14.393-.14v.328s.492.2.525-.328c.23-.033.2.14.2.14a7.524,7.524,0,0,0,1.18-.7h.492s3.344-2.492,2.885-2.984L25.315,3.3h1.672s1.377.689,1.344,0c-.459-.59-1.016-1.312-.787-1.8A4.147,4.147,0,0,1,29.938.581c0,.656-.033,1.246.2,1.344.623-.066,1.8.164,2-.033s.82-2.131,1.574-1.869.623.492.623.754a1.025,1.025,0,0,1-.3.557s.542.393.3.525-.632-.1-.763-.033-.361.361,0,.426,1.574.1,1.771.1.492.721.59.361A6.213,6.213,0,0,1,36.988,1.4s-.033-1.016.426-.885l.164.361.623.1a2.712,2.712,0,0,1,0,1.41c-.2.131-.3.459-.131.59s.82.721.82,1.148v.59a.594.594,0,0,0,.721-.1c.492-.066.951.23.853.689s-.459.984-.164.885a13.042,13.042,0,0,1,1.8-.1V5.762a3.93,3.93,0,0,1,.459.1.782.782,0,0,0,.787-.131c.23-.23.787-.787,1.016-.623s.885.721.885.853V7.041a6.377,6.377,0,0,0,.82.721c.131.033.853.131,1.082.2s1.082-.2,1.508.1a.581.581,0,0,1,.3.656s.459-.2.557.066.1.721-.262.787l-.1.361.2.164v.2l-.492.033.1.787h-.361s-.393.459-.262.623a3.076,3.076,0,0,1,.2.918s-.82.656-.787.852.459.23.459.23-.3,1.279-.525,1.344a.79.79,0,0,1-.426,0v.59s-.459-.033-.557.262a2.657,2.657,0,0,0,.033.951,1.907,1.907,0,0,1,.557,1.771c.459.131.59-.066.59-.066s.492-.853.885-.164a1.179,1.179,0,0,0,.393.393s.721-.393.984-.164c.557.262.754.164.754.164s.623-.393.656-.2.885.215.885.215v.9h1.213a10.048,10.048,0,0,0,1.049,1.7v.459l1.377.262a3.85,3.85,0,0,1-1.377,1.672l-.033.393h.3s.164.82.393.951,1.508.033,1.639.23-.23.82,0,.82a1.048,1.048,0,0,1,.656,1.082c-.23.3-.656.623-.525.787s1.049.984.853,1.344a.738.738,0,0,1-.885.426c-.394-.1-.754.131-.754.393s.164.721-.1.754-1.18.2-1.41.853l-.3.033-.066.23.328.23-.131.787s-.492.066-.492.3.361.787,0,.852-.557-.033-.59-.262.131-.557.033-.59a3.027,3.027,0,0,0-.492-.033l-.033.426s-.623.23-.754-.59c-.328-.033-1.082.066-1.016.164a4.149,4.149,0,0,1,0,.905s-1.049.439-1.049.9.066.656-.328.656c0,.262.2.623-.1.984s-.82.328-.656.59.361.885.23.918a1.485,1.485,0,0,1-.394,0s-.066.492-.492.3c.033.426-.066,1.344-.656,1.475.689.262.787.328.656.557a5.793,5.793,0,0,0-.393,1.8,2.958,2.958,0,0,0,.721.23l.459,1.049-.066.59h.787s.3.59,0,.754l-.131.2s.623.328.689.689-.033.689-.262.656c-.1.23-.131.59-.59.787l.033.3.131.459-.689.656-.754-.525-.23.525H47.119s-.721-.361-.918.262a2.046,2.046,0,0,1-.066.82s-.426-.656-.623-.689-.426.1-.393.262-.689.426-1.115.426-.623-.2-.59-.557.033-1.967-.918-2.361a2.413,2.413,0,0,0-.951.2l-.262-.426.525-.59-.918-1.115s-1.115.5-1.53.087a5.283,5.283,0,0,1-1.093-1.618c-.612-.044-1.639-.7-1.639-.962-.481-.066-.568-.087-.568-.087s-.262.59-.743.459-.831-.415-.656-.59.372-.634.066-.9.262-1.2.415-1.443c-.087-.306-.525-1.137-.721-1.18s-.809-.131-.809-.131a.889.889,0,0,1,.393-.9,10.191,10.191,0,0,1,.153-1.858c.153-.306.372-.284.372-.284l.066-.546.306-.044.044-.656s.372-.284.109-.372l-.066-.175-.721-.131s-.852.24-.94.634l-.131.59s-1.071.437-1.115.809l-.044.372.393.022a7.416,7.416,0,0,0-.284,1.508,6.041,6.041,0,0,1-1.312.372c-.372.328-.481.35-.481.35l-.437.044s-.066.787-1.137.765a9.611,9.611,0,0,1-2.317-.765c-.24.022-1.093.328-1.29.306s-.372-.35-.372-.35l-.765-.24s.328-.35.044-.59-.153-.721-.153-.721.153-.459.415-.481a2.425,2.425,0,0,1,.525.022s.066-.393.219-.415.219-.393.087-.459-.568-.787-.35-1.159h-.459s-.393.328-.546.066a.774.774,0,0,1,.219-.852,4.11,4.11,0,0,1,.109-1.246c.109-.175,1.027-.787.962-.94s-.546-.5-.721-.853c-.131.2-.24-.087-.131.2s.393.525.109.5-.481.087-.7-.24-.022-.481-.109-.7-.59-.5-.874-.809-.153-.459-.35-.546-.393.306-.743.175a.841.841,0,0,1-.394.087l-.852.568-.94-.787s-1.53-.022-1.465.087-.306,1.333-.612,1.093a4.5,4.5,0,0,1-.9-1.486,4.369,4.369,0,0,1,.481-.59l-.153-1.115a5.863,5.863,0,0,0-.809-1.421c-.284-.2-.94-.044-1.268-.109s-.459-.309-.24-.482c-.131-.283-.656-.523-.656-.348s-.7,1.224-1.159.984S10.9,24.681,10.9,24.44s-.109-1.945-.109-1.945-.743-.809-.328-1.486l.24-.109s.087-.7-.2-.787-.612-.131-.7-.394-.94-1.027-.787-1.661a1.5,1.5,0,0,0-.874.415c-.328-.022-.546-.175-.678-.087A3.463,3.463,0,0,1,6.9,18.6l-.437.481-.437-.022s-.087,1.158-.5,1.224-1.006-.2-1.027-.525l-.24-.044-.087.219-.546-.306-.087-.568-.918-1.18.066-.5-1.443-.044s-.481-.743-.415-1.071a2.324,2.324,0,0,0,.022-1.159.621.621,0,0,1,.131-.787,1.336,1.336,0,0,0,.175-.5L.8,12.964.3,12.7Z" transform="translate(0 0.001)" fill="#277fa2"/>
  <rect id="Rectangle_314" data-name="Rectangle 314" width="58" height="49.928" transform="translate(0 0)" fill="#277fa2"/>
</svg>
